<?xml version="1.0" encoding="UTF-8" standalone="no"?>
<!-- Created with Inkscape (http://www.inkscape.org/) -->

<svg
   width="82.663879mm"
   height="51.973473mm"
   viewBox="0 0 82.663879 51.973473"
   version="1.1"
   id="svg1688"
   xml:space="preserve"
   xmlns:inkscape="http://www.inkscape.org/namespaces/inkscape"
   xmlns:sodipodi="http://sodipodi.sourceforge.net/DTD/sodipodi-0.dtd"
   xmlns="http://www.w3.org/2000/svg"
   xmlns:svg="http://www.w3.org/2000/svg"><sodipodi:namedview
     id="namedview1690"
     pagecolor="#ffffff"
     bordercolor="#000000"
     borderopacity="0.25"
     inkscape:showpageshadow="2"
     inkscape:pageopacity="0.0"
     inkscape:pagecheckerboard="0"
     inkscape:deskcolor="#d1d1d1"
     inkscape:document-units="mm"
     showgrid="false" /><defs
     id="defs1685" /><g
     inkscape:label="Camada 1"
     inkscape:groupmode="layer"
     id="layer1"
     transform="translate(224.03075,-62.287199)"><g
       id="g2293"
       inkscape:export-filename=".\logo-light.svg"
       inkscape:export-xdpi="96"
       inkscape:export-ydpi="96"
       transform="matrix(0.39904144,0,0,0.39904144,-134.6332,37.432026)"><path
         d="m -170.48783,192.50552 v -0.0771 h 0.51128 c 0.10216,-0.0208 0.20373,-0.0443 0.30353,-0.0706 v -0.0924 h 0.30766 c 0.2305,-0.0776 0.45353,-0.17187 0.66971,-0.28271 v -0.0434 h 0.0832 c 0.0822,-0.0443 0.16306,-0.0905 0.24289,-0.13999 v -0.0231 h 0.0375 l 0.12555,-0.0813 v -0.0813 h 0.11825 l 0.0445,-0.0318 v -0.1312 h 0.17223 l 0.15388,-0.12615 v -0.0369 h 0.0429 l 0.12016,-0.10816 v -0.0549 h 0.0582 c 0.0961,-0.0919 0.19032,-0.1881 0.28226,-0.28825 4.59285,-5.03358 9.7616,-10.25229 14.97718,-15.67981 v -0.001 h 0.001 c 1.90313,-1.98074 3.81215,-3.98907 5.70187,-6.02672 v -0.003 h 0.003 c 0.59908,-0.64572 1.19591,-1.29431 1.78996,-1.94603 v -0.009 h 0.008 c 2.28085,-2.50175 4.52032,-5.04782 6.67233,-7.63926 v -0.0197 h 0.0167 c 0.26744,-0.32198 0.53347,-0.64442 0.79823,-0.9682 v -0.009 h 0.007 c 0.65916,-0.8056 1.30866,-1.61629 1.94842,-2.4306 v -0.0139 h 0.0111 c 0.38019,-0.48408 0.75716,-0.96947 1.12949,-1.45687 v -0.01 h 0.007 c 0.49385,-0.64573 0.98019,-1.29477 1.45923,-1.94603 v -0.009 h 0.007 c 0.27202,-0.36996 0.54088,-0.74052 0.80782,-1.11234 v -0.0286 h 0.0204 c 1.49299,-2.08005 2.90601,-4.19008 4.21643,-6.32883 v -0.0263 h 0.0161 c 0.15896,-0.25957 0.31743,-0.51865 0.47308,-0.77918 v -0.0356 h 0.0208 c 0.15751,-0.26335 0.31362,-0.52797 0.46785,-0.79224 v -0.0226 h 0.0134 c 0.50257,-0.86144 0.98619,-1.72808 1.45327,-2.59919 v -0.008 h 0.004 l 0.15893,-0.2952 v -0.0309 h 0.0166 l 0.14601,-0.27989 v -0.0458 h 0.0235 l 0.13952,-0.26835 v -0.0577 h 0.03 c 0.38442,-0.74235 0.7553,-1.48887 1.1109,-2.23806 v -0.0434 h 0.0208 l 0.14178,-0.30448 v -0.0212 h 0.0102 c 0.21982,-0.47067 0.43332,-0.94234 0.64209,-1.41583 v -0.0508 h 0.0226 l 0.14002,-0.31966 v -0.006 h 0.003 c 0.12802,-0.29567 0.25407,-0.59309 0.37751,-0.88967 l 15.76151,-1.48322 h -42.27361 c -5.25152,6.53852 -13.31185,10.72441 -22.35037,10.72441 -15.82618,0 -28.65547,-12.8294 -28.65547,-28.65381 0,-15.826178 12.82929,-28.6542 28.65547,-28.6542 9.19511,0 17.37758,4.331652 22.62067,11.06558 10.56111,0 11.4161,0 27.12731,0 -1.07693,-3.592089 -2.96891,-7.273396 -4.85087,-10.506569 v -0.01894 c -0.0987,-0.157515 -0.19999,-0.313161 -0.30071,-0.469759 h -0.0249 v -0.03877 c -0.41709,-0.648582 -0.84618,-1.288345 -1.29103,-1.91703 h -0.0129 v -0.01845 c -0.1506,-0.212549 -0.30402,-0.423086 -0.45731,-0.633271 h -0.0314 v -0.04399 c -0.14916,-0.204082 -0.30071,-0.405906 -0.45269,-0.607765 h -0.0361 v -0.04808 c -0.31965,-0.423545 -0.6453,-0.842045 -0.9774,-1.255501 h -3.6e-4 v -0.0011 c -0.26416,-0.328789 -0.53301,-0.654544 -0.80514,-0.976912 h -0.01 v -0.01196 l -0.12661,-0.1506 h -0.0365 v -0.0435 c -0.31552,-0.370417 -0.63754,-0.735788 -0.96269,-1.097527 h -0.0148 v -0.01609 c -1.22904,-1.364157 -2.52712,-2.664813 -3.89018,-3.894914 h -0.0208 v -0.01849 l -0.16259,-0.144109 h -3.6e-4 V 75.7534 c -0.30765,-0.275343 -0.61894,-0.546523 -0.93306,-0.814458 h -0.0443 v -0.03785 l -0.14647,-0.125201 h -0.0166 v -0.01422 c -0.3206,-0.270722 -0.64491,-0.537704 -0.97197,-0.800558 h -0.006 v -0.0051 c -0.20186,-0.16256 -0.40464,-0.32385 -0.60918,-0.483624 h -0.0425 v -0.03372 c -0.19728,-0.153776 -0.39723,-0.304377 -0.59637,-0.455436 h -0.0554 v -0.04255 l -0.15893,-0.120015 h -0.004 v -0.0032 c -0.14552,-0.108973 -0.29235,-0.215688 -0.43886,-0.322792 h -0.0498 v -0.03658 c -0.20846,-0.152329 -0.41804,-0.30293 -0.62918,-0.452226 h -0.0227 v -0.01612 c -0.62495,-0.441995 -1.25871,-0.871678 -1.90349,-1.287356 h -0.0522 v -0.03422 l -0.46245,-0.291888 h -0.0264 v -0.01669 c -0.89884,-0.563916 -1.81532,-1.102572 -2.7493,-1.613006 h -0.0208 v -0.01154 l -0.27803,-0.151518 h -0.0481 v -0.0254 l -0.25958,-0.137195 h -0.0661 v -0.03503 c -0.72884,-0.384881 -1.46699,-0.754345 -2.21583,-1.105853 h -0.0656 v -0.03009 l -0.28911,-0.132962 h -0.037 v -0.01718 l -0.31729,-0.145415 h -0.008 v -0.0037 c -0.36724,-0.165771 -0.73674,-0.328013 -1.10808,-0.485528 h -0.0328 v -0.01376 c -0.52243,-0.221368 -1.04955,-0.433317 -1.5802,-0.637963 h -0.049 v -0.0194 c -0.42167,-0.162101 -0.84617,-0.317747 -1.27257,-0.4693 h -0.0314 v -0.01104 l -0.43472,-0.152012 h -0.054 v -0.01891 l -0.42732,-0.144145 h -0.0615 v -0.02032 c -0.31538,-0.104881 -0.63186,-0.206445 -0.9496,-0.305294 h -0.0282 v -0.0088 c -0.35246,-0.109467 -0.70675,-0.214771 -1.06189,-0.317288 h -0.0785 v -0.02268 c -0.36633,-0.104881 -0.73452,-0.205987 -1.10398,-0.302966 h -0.037 v -0.0097 l -0.60141,-0.153318 h -0.0503 v -0.01256 c -0.69606,-0.17272 -1.39777,-0.331188 -2.10453,-0.47625 h -0.17692 v -0.03644 l -0.65126,-0.126612 h -0.16351 v -0.03045 c -0.24712,-0.04572 -0.49516,-0.09052 -0.74323,-0.132609 h -0.0716 v -0.01196 c -0.31507,-0.05316 -0.63105,-0.10347 -0.94739,-0.151095 h -0.0301 v -0.0046 c -0.38054,-0.0568 -0.7626,-0.109467 -1.1455,-0.158468 h -0.15847 v -0.0199 c -0.41896,-0.05218 -0.83982,-0.100154 -1.2615,-0.142699 h -0.20514 v -0.02081 c -0.6,-0.05771 -1.20368,-0.104387 -1.80933,-0.14224 h -0.63468 v -0.03468 c -0.89193,-0.04526 -1.78851,-0.06971 -2.69208,-0.06971 -0.73625,0 -1.46795,0.01891 -2.19678,0.04854 v 0.05584 h -1.09058 c -0.67173,0.04113 -1.34052,0.09193 -2.00519,0.158009 v 0.005 h -0.0555 c -0.41755,0.04209 -0.83372,0.08911 -1.24859,0.140829 v 0.02177 H -177.84 c -0.26603,0.03418 -0.53079,0.07299 -0.79541,0.111302 v 0.05172 h -0.37006 c -0.25767,0.0388 -0.51407,0.0823 -0.77093,0.124742 v 0.03831 h -0.23184 c -0.24899,0.04258 -0.49749,0.08548 -0.74553,0.131692 v 0.03136 h -0.16305 c -0.71089,0.13402 -1.4181,0.278624 -2.1184,0.440266 v 0.04844 h -0.19808 l -0.45368,0.11049 v 0.05267 h -0.21568 c -0.14556,0.03598 -0.29143,0.0702 -0.43604,0.107562 v 0.05549 h -0.2056 l -0.44661,0.120968 v 0.04163 h -0.15434 c -0.16577,0.04572 -0.33211,0.08911 -0.49753,0.136701 v 0.02635 h -0.0877 c -0.51734,0.148695 -1.0305,0.307163 -1.54139,0.47117 v 0.01799 h -0.0555 l -0.43367,0.140829 v 0.02173 h -0.0675 l -0.42132,0.14224 v 0.02081 h -0.0591 l -0.42958,0.151553 v 0.0115 h -0.0328 l -0.2933,0.10347 v 0.05958 h -0.16906 l -0.31965,0.120615 v 0.04198 h -0.11133 l -0.37783,0.143651 v 0.0194 h -0.0513 c -0.25544,0.09839 -0.50994,0.198649 -0.76351,0.301166 v 0.02494 h -0.0615 c -0.63705,0.257774 -1.26986,0.524757 -1.89386,0.806556 v 0.0083 h -0.0194 l -0.30624,0.14224 v 0.02035 h -0.0435 l -0.28261,0.132151 v 0.0309 h -0.0665 l -0.25968,0.120968 v 0.04209 h -0.0896 l -0.23604,0.112748 v 0.05031 h -0.10065 l -0.22546,0.112254 v 0.0508 h -0.10251 l -0.22314,0.110843 v 0.05172 h -0.10393 l -0.22217,0.110384 v 0.05267 h -0.10393 c -0.7922,0.406047 -1.57149,0.832908 -2.34008,1.276808 v 0.02681 h -0.0457 c -0.14873,0.08629 -0.29567,0.175048 -0.44345,0.262255 v 0.06385 h -0.10816 l -0.21748,0.128835 v 0.03422 h -0.0582 c -0.1446,0.08721 -0.28779,0.176424 -0.43095,0.265077 v 0.06054 h -0.097 l -0.22864,0.142734 v 0.02032 h -0.0325 c -0.15187,0.09557 -0.30575,0.189865 -0.45681,0.286844 v 0.03926 h -0.06 c -0.64163,0.413455 -1.27314,0.840175 -1.89526,1.280442 v 0.02304 h -0.0333 c -0.20782,0.147426 -0.4125,0.297992 -0.6186,0.448134 v 0.04067 h -0.0553 c -0.14411,0.105692 -0.29012,0.209233 -0.43331,0.315877 v 0.01023 h -0.0134 l -0.14965,0.11497 v 0.04759 h -0.0623 c -0.19773,0.14919 -0.39405,0.300249 -0.58942,0.452261 v 0.0369 h -0.0486 c -0.20277,0.158009 -0.40273,0.318699 -0.60318,0.479883 v 0.0088 h -0.0107 c -0.32564,0.261902 -0.64798,0.527473 -0.96728,0.796784 v 0.01799 h -0.0212 c -0.37748,0.318805 -0.75061,0.642585 -1.11926,0.971973 v 0.006 h -0.006 l -0.1566,0.138959 v 0.02364 h -0.0268 l -0.13628,0.120967 v 0.04205 h -0.0457 l -0.11733,0.109008 v 0.05405 h -0.0579 l -0.10534,0.09793 v 0.06512 h -0.0702 c -0.99042,0.917787 -1.94521,1.873533 -2.863,2.863956 v 0.06925 h -0.0642 l -0.0984,0.105798 v 0.05726 h -0.0536 l -0.10943,0.117793 v 0.04477 h -0.0407 l -0.12238,0.137654 v 0.0254 h -0.0227 l -0.14037,0.158468 v 0.0046 h -0.004 c -0.32975,0.369147 -0.65409,0.743303 -0.97328,1.121622 v 0.01891 h -0.0161 c -0.27026,0.32011 -0.53583,0.643396 -0.79869,0.969997 v 0.0079 h -0.006 c -0.1621,0.201366 -0.32388,0.403225 -0.48316,0.607413 v 0.04431 h -0.0342 c -0.15293,0.196321 -0.30434,0.394547 -0.45445,0.59309 v 0.05877 h -0.0454 l -0.11779,0.153776 v 0.0093 h -0.007 c -0.10816,0.144497 -0.21209,0.291888 -0.31881,0.437444 v 0.05126 h -0.0374 c -0.15152,0.207362 -0.30307,0.414267 -0.45177,0.623993 v 0.02773 h -0.0194 c -0.44108,0.623994 -0.86935,1.258217 -1.28408,1.901719 v 0.05408 h -0.0356 c -0.0984,0.152824 -0.19304,0.308469 -0.29002,0.462845 v 0.02586 h -0.0162 l -0.14683,0.235091 v 0.09102 h -0.0569 l -0.26931,0.43882 v 0.04985 h -0.0295 l -0.1331,0.225001 v 0.101107 h -0.0599 l -0.26613,0.450356 v 0.03835 h -0.0226 c -0.3876,0.670771 -0.75942,1.351668 -1.11785,2.040325 v 0.07803 h -0.0412 l -0.12188,0.230998 v 0.09511 h -0.0472 l -0.11588,0.232904 v 0.09275 h -0.0462 l -0.11684,0.235126 v 0.09098 h -0.0453 l -0.11779,0.236996 v 0.08876 h -0.044 l -0.11861,0.248497 v 0.07761 h -0.0361 l -0.12707,0.271533 v 0.05408 h -0.0254 l -0.13765,0.295204 v 0.0309 h -0.0142 l -0.14883,0.32198 v 0.0037 h -0.002 c -0.28413,0.630096 -0.55298,1.267954 -0.81305,1.910538 v 0.04526 h -0.0185 c -0.0476,0.117792 -0.0974,0.234174 -0.14411,0.352425 v 0.136243 h -0.0522 l -0.11084,0.291923 v 0.03418 h -0.013 l -0.1501,0.395464 v 0.09324 h -0.0356 l -0.12743,0.340925 v 0.147743 h -0.0522 l -0.11038,0.313655 v 0.01259 h -0.005 l -0.15837,0.449862 v 0.03881 h -0.0134 l -0.14965,0.444359 v 0.0448 h -0.0148 l -0.14827,0.457306 v 0.03136 h -0.0102 c -0.16672,0.519254 -0.32752,1.041681 -0.47858,1.567291 v 0.0624 h -0.0185 c -0.0498,0.17505 -0.096,0.35147 -0.14457,0.52701 v 0.12471 h -0.0336 c -0.0435,0.15928 -0.0878,0.31775 -0.12944,0.47762 v 0.17414 h -0.047 c -0.0402,0.1561 -0.0768,0.31411 -0.11557,0.47067 v 0.18105 h -0.0443 c -0.0398,0.16259 -0.0809,0.3248 -0.11874,0.48785 v 0.16401 h -0.0402 c -0.0434,0.1875 -0.0812,0.37687 -0.12284,0.56487 v 0.0869 h -0.0189 c -0.10946,0.50257 -0.21198,1.00796 -0.3072,1.51603 v 0.11356 h -0.0217 c -0.0494,0.26663 -0.0956,0.53407 -0.14083,0.80151 v 0.33905 h -0.0563 c -0.0365,0.22486 -0.073,0.4499 -0.10672,0.67571 v 0.30212 h -0.0426 c -0.0415,0.29062 -0.0831,0.58156 -0.12047,0.87394 v 0.26695 h -0.0305 c -0.0486,0.40005 -0.0933,0.80105 -0.13261,1.20382 v 0.0998 h -0.009 c -0.0642,0.66466 -0.11451,1.33448 -0.15377,2.0061 v 1.25268 h -0.0574 c -0.0221,0.61719 -0.036,1.23709 -0.036,1.85967 0,0.52253 0.012,1.04309 0.0309,1.5627 h 0.0624 v 1.24668 c 0.0295,0.45459 0.0665,0.90777 0.10992,1.36038 h 0.0527 v 0.48221 c 0.0471,0.43791 0.0998,0.8745 0.15974,1.31054 h 0.003 v 0.023 c 0.0364,0.26381 0.0702,0.52843 0.11084,0.79174 h 0.0522 v 0.30625 c 0.0364,0.22408 0.0747,0.44767 0.11402,0.67126 h 0.049 v 0.28907 c 0.0323,0.17551 0.0688,0.35066 0.10298,0.52571 h 0.0596 v 0.2993 c 0.0458,0.2263 0.0896,0.45272 0.13861,0.67857 h 0.0245 v 0.10812 c 0.0517,0.23594 0.10629,0.47152 0.16118,0.70665 h 0.002 v 0.007 c 0.0503,0.21477 0.10122,0.43004 0.15438,0.64445 h 0.009 v 0.035 c 0.0513,0.2061 0.10488,0.41155 0.15847,0.6167 h 0.005 v 0.0171 c 0.0411,0.15706 0.0799,0.31457 0.12284,0.47163 h 0.0398 v 0.13906 c 0.0471,0.17142 0.0974,0.34188 0.14647,0.51266 h 0.0166 v 0.0592 c 0.0411,0.14316 0.0799,0.28684 0.12249,0.43 h 0.0406 v 0.13956 l 0.10907,0.34925 h 0.054 v 0.17223 l 0.15011,0.47953 h 0.0126 v 0.0402 l 0.14587,0.44848 h 0.0171 v 0.0508 l 0.14919,0.43837 h 0.0139 v 0.0416 c 0.19999,0.58519 0.4069,1.16862 0.62682,1.75066 h 0.0249 v 0.068 c 0.0946,0.24934 0.19396,0.49833 0.29189,0.74683 h 0.0342 v 0.0869 l 0.15797,0.40227 h 0.005 v 0.012 l 0.12887,0.31365 h 0.0342 v 0.0814 c 0.10076,0.24486 0.20327,0.48916 0.3072,0.73357 h 0.0189 v 0.0453 l 0.1197,0.28081 h 0.0434 v 0.0984 c 0.10393,0.23922 0.21068,0.47763 0.31789,0.71593 h 0.008 v 0.0175 c 1.00933,2.24769 2.15166,4.46955 3.40858,6.66376 h 0.0134 v 0.0235 c 0.15141,0.26416 0.30766,0.52797 0.46235,0.79129 h 0.0268 v 0.0462 c 0.15106,0.25675 0.30293,0.51266 0.45682,0.7686 h 0.0318 v 0.0526 c 0.15342,0.25453 0.30579,0.50857 0.46189,0.76214 h 0.0268 v 0.0445 c 0.15847,0.25721 0.32103,0.51407 0.48268,0.77047 h 0.006 v 0.0101 c 0.61669,0.97973 1.25137,1.95488 1.90725,2.92308 h 0.048 v 0.0702 l 0.2878,0.41853 h 0.0383 v 0.0558 l 0.29803,0.43332 h 0.0276 v 0.0402 l 0.3127,0.44848 h 0.0134 v 0.0189 c 0.53075,0.75756 1.07163,1.51194 1.62274,2.26254 h 0.007 v 0.009 c 0.15751,0.21477 0.31775,0.42862 0.47671,0.64244 h 0.012 v 0.0162 l 0.47481,0.63564 h 0.0139 v 0.018 l 0.48094,0.63373 h 0.008 v 0.0111 c 0.78952,1.0352 1.59692,2.06337 2.41815,3.08519 h 0.0259 v 0.0323 c 0.21022,0.26099 0.41945,0.52197 0.63154,0.78246 h 0.0203 v 0.0245 l 0.64894,0.79033 h 0.003 v 0.003 c 0.26836,0.32516 0.5377,0.65031 0.80832,0.9742 h 0.006 v 0.007 c 0.59083,0.70661 1.18755,1.41114 1.78946,2.11098 h 0.003 v 0.004 c 0.37373,0.43462 0.74919,0.8684 1.12656,1.3003 h 0.0139 v 0.0157 c 0.80705,0.92378 1.62091,1.84262 2.44087,2.75438 h 0.004 v 0.004 c 0.53866,0.59869 1.08046,1.1945 1.62324,1.78816 h 0.006 v 0.007 c 1.45549,1.59184 2.92248,3.16463 4.39088,4.71851 h 0.009 v 0.009 c 1.03286,1.09295 2.06527,2.17611 3.094,3.25001 h 0.002 v 0.002 c 4.84642,5.05898 9.60328,9.90773 13.82808,14.53798 0.0919,0.10064 0.18563,0.19632 0.28211,0.28825 h 0.0665 v 0.0628 l 0.11228,0.10029 h 0.0508 v 0.0439 l 0.1451,0.1192 h 0.18101 v 0.1367 l 0.0366,0.0264 h 0.12612 v 0.0869 l 0.11769,0.0757 h 0.0454 v 0.0282 c 0.0771,0.047 0.15565,0.0923 0.23513,0.13484 h 0.091 v 0.0476 c 0.21336,0.10897 0.43416,0.20186 0.66185,0.27848 h 0.31552 v 0.0943 c 0.0975,0.0259 0.19586,0.0484 0.29566,0.0688 h 0.51915 v 0.0776 c 0.18574,0.0185 0.37511,0.0277 0.5672,0.0277 0.19505,0 0.38618,-0.009 0.57379,-0.0282 z m 44.33658,-105.343398 -0.002,-0.0025 h -0.0117 z"
         style="fill:#e30016;fill-rule:evenodd;stroke-width:0.352778"
         id="path1692" /><g
         id="Layer1001"
         transform="matrix(0.35277777,0,0,0.35277777,-268.95241,22.409939)"
         style="fill:#ffffff"><path
           d="m 652.1739,360.7815 0.7691,-3e-4 c 0.8366,-2e-4 1.6595,0.0699 1.6921,1.0843 0.0331,1.0314 -0.7251,1.1793 -1.5843,1.1796 l -0.8769,6e-4 z m -0.9126,6.7453 0.8977,0.0438 0.0155,-3.6621 c 0.3966,0.1463 2.5653,3.2414 2.9205,3.6442 l 1.1323,0.0225 -2.8357,-3.6278 c 1.3202,-0.2081 2.1766,-0.3489 2.1659,-1.982 -0.0155,-2.381 -2.2687,-2.1039 -4.2973,-2.0221 z"
           style="fill:#ffffff;fill-rule:evenodd"
           id="path1694" /><path
           d="m 656.9912,367.5726 h 4.0475 l -6e-4,-0.8623 h -3.14 v -2.9106 h 3.1401 l -10e-5,-0.8619 -3.14,-6e-4 v -2.156 l 3.1401,-1e-4 -10e-5,-0.8623 h -4.0477 z"
           style="fill:#ffffff;fill-rule:evenodd"
           id="path1696" /><path
           d="m 649.6112,366.8652 0.0313,-1.1276 c -0.5987,0.2987 -0.7039,0.6501 -1.4995,0.9122 -0.7377,0.2429 -1.3843,0.2372 -2.1176,-0.0245 -2.7405,-0.9778 -2.6326,-4.9121 -0.0781,-5.839 1.6233,-0.5889 2.4375,-0.0369 3.6515,0.8264 l 0.0497,-1.0459 c -1.0939,-1.0118 -3.1001,-1.0713 -4.3869,-0.4588 -4.5059,2.1451 -1.4882,10.1378 4.3496,6.7572 z"
           style="fill:#ffffff;fill-rule:evenodd"
           id="path1698" /><path
           d="m 668.785,366.8652 0.0314,-1.1274 c -0.6311,0.3153 -1.625,1.5964 -3.617,0.887 -2.7405,-0.976 -2.6334,-4.9106 -0.0788,-5.8385 1.6161,-0.5869 2.4419,-0.0396 3.6513,0.8264 l 0.0505,-1.0456 c -1.9038,-1.7664 -6.5493,-0.8774 -6.5629,3.1247 -0.01,2.8029 2.8537,5.3019 6.5255,3.1734 z"
           style="fill:#ffffff;fill-rule:evenodd"
           id="path1700" /><path
           d="m 677.1854,360.8092 c 1.0196,-0.1049 2.4314,-0.0955 2.4182,1.2665 -0.0131,1.341 -1.4484,1.1845 -2.4407,1.1849 z m -0.9338,6.7176 0.8978,0.0438 0.015,-3.4476 h 1.0922 c 1.7551,0 2.7936,-1.2295 2.198,-2.9458 -0.5201,-1.4987 -2.8767,-1.4272 -4.203,-1.2173 z"
           style="fill:#ffffff;fill-rule:evenodd"
           id="path1702" /><path
           d="m 704.1225,363.5851 c 2.2939,-0.8348 2.9667,2.6977 1.0972,3.2616 -2.2527,0.6794 -2.9881,-2.5734 -1.0972,-3.2616 z m -0.2334,-0.696 c 0.4924,-0.8224 1.855,-1.89 2.265,-2.737 l -0.7253,-0.3254 c -0.5677,0.454 -2.2278,2.7149 -2.5993,3.4496 -2.6283,5.1951 4.0322,5.7037 4.3291,2.1457 0.0794,-0.9522 -0.1465,-1.606 -0.8428,-2.2155 -0.8263,-0.723 -1.5374,-0.4315 -2.4267,-0.3174 z"
           style="fill:#ffffff;fill-rule:evenodd"
           id="path1704" /><path
           d="m 696.0928,360.7807 3.5335,7e-4 c -0.4578,1.2975 -3.0507,5.9061 -3.1778,6.6813 l 0.6385,0.2094 c 0.4309,-0.4198 3.3103,-6.5344 3.8496,-7.5971 -1.2582,-0.1224 -3.4851,-0.0514 -4.8436,-0.0483 z"
           style="fill:#ffffff;fill-rule:evenodd"
           id="path1706" /><path
           d="m 708.8028,360.7812 h 3.5341 c -0.4567,1.2926 -3.0511,5.9093 -3.1777,6.6814 l 0.6378,0.209 c 0.4201,-0.4063 3.3222,-6.5504 3.8509,-7.5966 -1.2573,-0.1222 -3.4864,-0.0514 -4.8442,-0.0483 z"
           style="fill:#ffffff;fill-rule:evenodd"
           id="path1708" /><path
           d="m 681.4417,366.323 -0.5961,0.5584 c 0.8507,1.2632 3.2345,1.2012 3.2925,-1.0301 0.0484,-1.8557 0.0653,-4.0408 -0.007,-5.8863 l -0.8893,-0.0409 c -0.083,1.3692 0.163,6.0818 -0.199,6.6181 -0.4646,0.6881 -1.2036,0.0263 -1.6013,-0.2192 z"
           style="fill:#ffffff;fill-rule:evenodd"
           id="path1710" /><path
           d="m 670.348,367.1415 0.0117,0.4394 0.8891,-10e-4 0.0259,-0.4379 -0.004,-7.2228 h -0.9238 z"
           style="fill:#ffffff;fill-rule:evenodd"
           id="path1712" /><path
           d="m 688.9043,365.6322 h 1.8475 l 0.5981,-0.025 0.008,-0.4062 -0.003,-0.3852 -0.6023,-0.055 -1.848,0.009 z"
           style="fill:#ffffff;fill-rule:evenodd"
           id="path1714" /></g><path
         d="m -157.6657,102.715 -21.659,-0.0294 c -3.42152,0 -5.18591,1.11492 -5.56779,4.48325 -0.0751,0.66057 -0.006,1.69104 -0.006,2.40301 0,0.88858 -0.0489,0.74052 -0.0489,1.6407 v 2.5708 c -0.0145,3.65315 3.65746,4.26843 6.50216,4.26843 h 15.44849 v 4.45925 h -17.11064 v -2.08223 c -0.21717,0.005 -0.49364,0.11416 -0.70506,0.17328 -0.27058,0.0756 -0.4632,0.12774 -0.73258,0.19456 l -4.23337,1.1817 c 0,1.28436 -0.0751,1.14872 0.1173,2.38337 0.55344,3.55152 4.04721,3.84489 6.92245,3.84489 4.79118,0 9.58198,0 14.37305,0 3.65354,0 6.69805,-0.54748 6.69939,-4.96034 v -4.0821 -2.89017 c -3.5e-4,-2.61926 -2.57411,-3.61103 -4.97925,-3.90122 -0.35175,-0.0423 -0.66011,-0.0895 -1.0844,-0.0878 l -15.59535,1.1e-4 v -4.45068 h 21.659 z"
         style="fill:#e30016;fill-rule:evenodd;stroke-width:0.352778"
         id="path1717" /><path
         d="m -27.18061,113.68904 h -12.466391 v -5.91743 h 11.830897 c 0.47565,0 0.834531,0.0844 1.230418,0.1385 0.905087,0.12369 1.121904,0.39353 1.428186,1.30994 0.06784,0.20302 0.124601,0.30331 0.130245,0.55439 0.0051,0.22595 -0.01065,0.46277 -0.0039,0.68851 0.0072,0.24084 0.07211,0.36294 0.04907,0.63042 -0.01376,0.15959 -0.03986,0.42238 -0.06727,0.61965 -0.06152,0.44256 -0.07511,0.78909 -0.285362,1.08388 -0.481647,0.67518 -0.888576,0.89214 -1.845909,0.89214 z m -18.186259,14.32891 c 0,0.11268 0.03401,0.14669 0.146685,0.14669 h 5.426534 c 0.112677,0 0.146649,-0.034 0.146649,-0.14669 v -9.34071 h 4.44881 c 0.314008,0 1.17475,1.0226 1.462335,1.27582 0.0076,0.007 0.01848,0.0162 0.02596,0.0229 0.48454,0.43353 0.977583,0.99293 1.365003,1.32429 l 0.8255,0.78807 c 0.451097,0.45124 1.718522,1.72233 2.214598,2.13716 0.458787,0.38361 0.908191,0.95208 1.412945,1.37411 0.330377,0.27626 0.592808,0.56377 0.894574,0.86568 l 1.368849,1.32038 c 0.147813,0.14788 0.251072,0.35415 0.499603,0.38054 0.579403,0.0615 1.254584,-0.0233 1.761243,-0.0507 0.661882,-0.0358 5.918377,0.0574 6.165039,-0.0438 0.473251,-0.19403 0.419206,-0.78804 -0.06498,-1.31417 -0.193781,-0.21061 -0.427108,-0.33708 -0.636622,-0.53682 l -0.634718,-0.5388 c -0.650381,-0.57951 -2.026391,-1.65872 -2.542999,-2.15095 l -2.542152,-2.15177 c -0.41215,-0.39264 -3.041473,-2.51675 -3.165475,-2.702 1.617733,0 3.354846,0.0954 4.539792,-0.34911 0.291077,-0.10918 0.56903,-0.24384 0.839258,-0.38301 l 0.676875,-0.54553 c 0.614644,-0.73724 1.174256,-1.49123 1.180324,-2.53598 0.0025,-0.39977 0.07757,-0.76193 0.09716,-1.12547 0.04212,-0.78168 -2.12e-4,-1.6976 -2.12e-4,-2.49435 0,-0.84578 0.04886,-1.53483 0.04886,-2.39628 v -2.59193 c 0,-1.02196 -0.530966,-1.85688 -1.264109,-2.45219 -0.330447,-0.26829 -0.698676,-0.56533 -1.123527,-0.73445 -0.357822,-0.14245 -0.978393,-0.38336 -1.474505,-0.38336 h -22.097294 z"
         style="fill:#e30016;fill-rule:evenodd;stroke-width:0.352778"
         id="path1719" /><path
         d="m -118.20765,128.16464 h 4.88876 v -16.72523 c 0.0517,0.0596 -0.0127,-0.0243 0.0661,0.0806 l 5.73673,7.75892 c 0.42838,0.52487 1.14572,1.60222 1.57194,2.14422 l 2.03952,2.75241 c 0.75462,1.00118 0.35193,0.81037 1.78099,0.81037 0.14835,0 0.22116,-0.1802 0.36315,-0.37031 0.11702,-0.15674 0.20197,-0.2696 0.31422,-0.41925 l 9.540172,-12.75693 v 16.72523 h 5.475464 v -25.47906 h -5.328814 c -0.03867,0.14488 -0.191382,0.31937 -0.28575,0.44771 l -2.93116,4.06114 c -0.217205,0.31891 -0.435927,0.58858 -0.654897,0.90982 -0.211984,0.31107 -0.423121,0.60579 -0.653767,0.91097 -0.130563,0.17279 -0.204823,0.28328 -0.323498,0.45886 l -3.56648,4.94164 c -0.22412,0.29665 -1.91301,2.61197 -1.94864,2.74549 h -0.0978 c -0.0394,-0.14777 -0.21307,-0.33281 -0.31421,-0.4681 l -1.72385,-2.23685 c -0.12771,-0.15635 -0.21206,-0.28194 -0.33602,-0.44634 l -1.74661,-2.26293 c -1.45425,-1.94994 -3.04098,-3.91929 -4.505,-5.86119 l -2.42295,-3.20022 h -4.93766 z"
         style="fill:#e30016;fill-rule:evenodd;stroke-width:0.352778"
         id="path1721" /><g
         id="Layer1002"
         transform="matrix(0.35277777,0,0,0.35277777,-268.95241,22.409939)"
         style="fill:#ffffff"><path
           d="m 449.6429,349.0735 0.0158,-4.5329 -0.009,-3.1938 0.7927,-0.004 5.804,11.4548 3.828,0.006 5.8552,-11.5144 0.7015,0.001 -0.0676,11.5082 4.5543,-0.0102 c 0.2161,-1.6516 -0.1584,-14.3568 0.0842,-15.3709 l -8.3757,-0.002 c -0.4338,0.3032 -2.0174,4.1629 -2.3931,4.9543 -0.4714,0.9931 -1.8078,4.3268 -2.3054,4.9587 -0.7214,-1.3308 -4.1554,-9.5507 -4.6615,-9.9129 l -8.2905,0.008 -0.0481,15.3457 h 4.5583 z m 0.712,-7.7786 c 0.0199,0.01 0.0399,0.0202 0.0605,0.032 -0.0185,-0.0104 -0.0388,-0.0213 -0.0605,-0.032 z"
           style="fill:#ffffff;fill-rule:evenodd"
           id="path1723" /><path
           d="m 530.3395,348.9893 c -0.1073,0.2281 -8.7219,0.2263 -9.2799,0.1032 l -0.0115,-2.5244 c 0.7508,-0.1386 8.8301,-0.0946 9.1565,0.0714 1.5863,-0.226 1.5472,2.3618 0.1349,2.3498 z m -9.266,-5.4969 10e-4,-2.4515 c 2.2577,0.003 5.952,-0.0765 8.1061,0.0285 0.9356,0.0456 1.629,0.006 1.6062,1.1956 -0.0209,1.0873 -0.5887,1.1297 -1.5128,1.1758 -2.4337,0.1214 -5.6985,0.0401 -8.2009,0.0516 z m 10.2952,9.2171 c 2.1759,0.004 4.1854,-0.3891 4.4384,-2.6787 0.2721,-1.8651 0.1961,-4.7886 -2.2309,-4.9583 l -0.2657,-0.0911 0.2036,-0.1336 c 2.0178,-0.4009 2.0216,-3.4707 1.6658,-5.0718 -0.528,-2.3759 -2.6041,-2.2588 -4.6088,-2.3292 -4.5859,-0.1608 -9.3016,0.0129 -13.9064,-0.0335 l 0.005,15.3341 z"
           style="fill:#ffffff;fill-rule:evenodd"
           id="path1725" /><path
           d="m 490.1053,341.3128 c 1.5804,-0.1357 3.1942,-0.1128 4.7862,-0.1015 4.2159,0.0296 5.0332,-0.2662 4.8427,4.9481 -0.0641,1.7551 -0.2,2.5439 -2.0757,2.7771 -1.3772,0.1711 -3.3858,0.111 -4.8058,0.089 -1.0848,-0.0168 -3.4043,0.1055 -4.2225,-0.5882 -0.8144,-0.6905 -0.6545,-3.2912 -0.5862,-4.3186 0.1119,-1.6831 0.1212,-2.639 2.0613,-2.8059 z m -6.7531,5.7739 c 0.1182,2.8597 0.3154,5.1706 3.5636,5.6819 2.5674,0.4041 6.2417,0.261 8.9025,0.2414 8.1,-0.0596 8.8299,-0.39 8.5693,-9.8227 -0.0767,-2.7776 -0.3554,-5.1954 -3.4879,-5.6968 -2.5948,-0.4154 -6.2905,-0.295 -8.9738,-0.2678 -2.5497,0.0259 -6.1908,-0.2242 -7.6362,1.6681 -1.1881,1.5555 -1.0205,6.1867 -0.9375,8.1959 z"
           style="fill:#ffffff;fill-rule:evenodd"
           id="path1727" /><path
           d="m 647.7354,341.2847 c 1.9381,7e-4 3.8762,1e-4 5.8143,0 2.9368,-10e-5 3.886,-0.4041 3.8648,1.9074 -0.008,0.8925 -0.0752,1.6845 -1.1136,1.7951 -1.3052,0.1392 -7.0248,0.0584 -8.6162,0.0665 z m 8.3087,7.6672 c 1.838,0.2582 1.07,2.3121 1.3409,3.8467 l 4.5511,-0.01 c 0.0997,-0.7385 0.0501,-3.3455 -0.0787,-4.1012 -0.2178,-1.2771 -1.2475,-1.6042 -2.3543,-1.8306 1.4669,-0.7829 2.7529,0.0709 2.616,-5.1497 -0.0654,-2.4896 -0.8102,-4.1638 -3.563,-4.2324 -5.1641,-0.1289 -10.3533,0.0637 -15.497,-0.0658 l 0.008,15.3095 4.6033,9e-4 -0.0309,-3.817 c 1.8213,0.0328 7.0597,-0.1395 8.4046,0.0491 z"
           style="fill:#ffffff;fill-rule:evenodd"
           id="path1729" /><path
           d="m 701.3795,341.0088 0.815,0.002 c 0.2815,0.2881 2.7148,5.1554 2.9941,5.822 l -6.8293,-0.0125 z m -4.6465,9.1885 10.0116,-10e-5 c 0.4783,0.3555 1.0573,1.9774 1.4374,2.6009 l 5.2845,-0.024 -7.9806,-15.3582 -7.1746,-2e-4 c -0.4274,0.2476 -1.8307,3.1745 -2.1399,3.8205 -0.9183,1.9186 -5.9861,10.9531 -6.0816,11.5628 l 5.2794,0.002 z"
           style="fill:#ffffff;fill-rule:evenodd"
           id="path1731" /><path
           d="m 616.8636,346.8211 c 0.2318,-0.5865 2.7485,-5.5559 2.9867,-5.8112 l 0.8789,-0.008 2.9285,5.8308 z m -1.675,3.3772 10.0956,0.006 c 0.6006,0.6556 0.739,1.906 1.4009,2.5927 l 5.2294,-0.003 c -0.1046,-0.4008 -3.5081,-6.8101 -3.9906,-7.6958 -0.4368,-0.8022 -3.8078,-7.5949 -4.1226,-7.6827 l -7.1449,0.0166 -8.1024,15.3654 5.3073,0.006 z"
           style="fill:#ffffff;fill-rule:evenodd"
           id="path1733" /><path
           d="m 570.2316,348.8145 -0.0152,-11.3969 -4.8566,0.0203 -0.004,15.3219 15.7333,7e-4 0.0107,-3.8527 c -1.8295,9e-4 -3.6591,3e-4 -5.4885,3e-4 -0.7474,0 -5.0178,0.1292 -5.3792,-0.0936 z"
           style="fill:#ffffff;fill-rule:evenodd"
           id="path1735" /><path
           d="m 592.5503,337.4159 c 0.01,1.8676 -0.1562,14.7512 0.0794,15.3826 l 4.8084,-0.005 c 0.2084,-1.4152 -0.1458,-14.3213 0.0836,-15.3762 z"
           style="fill:#ffffff;fill-rule:evenodd"
           id="path1737" /><path
           d="m 547.875,337.4152 c 0.003,1.2796 -0.097,14.5843 0.0496,15.4485 0.4115,-0.125 4.452,-0.1305 4.8659,-0.004 l 0.004,-15.441 z"
           style="fill:#ffffff;fill-rule:evenodd"
           id="path1739" /><path
           d="m 427.724,337.4621 0.005,15.2971 4.8392,-4e-4 -0.0162,-15.2781 z"
           style="fill:#ffffff;fill-rule:evenodd"
           id="path1741" /><path
           d="m 674.119,352.7588 4.8365,6e-4 0.003,-15.2781 -4.8285,6e-4 z"
           style="fill:#ffffff;fill-rule:evenodd"
           id="path1743" /><path
           d="m 625.3453,334.1919 c 0.2387,-0.1983 0.0126,0.0292 0.1478,-0.2706 l -1.7276,-3.3954 -5.7072,4.0294 0.922,1.7752 c 0.5427,-0.0296 2.5235,-0.8404 3.2066,-1.0586 1.013,-0.3237 2.1632,-0.8499 3.1584,-1.08 z"
           style="fill:#ffffff;fill-rule:evenodd"
           id="path1745" /><path
           d="m 427.724,337.4621 4.828,0.0186 0.0162,15.2781 -4.8392,4e-4 z m 0,0 c -0.085,0.1127 -0.0845,-0.1815 -0.0885,0.2575 l 0.0223,15.0687 c 0.4179,0.1298 4.344,0.1061 4.9457,0.0378 0.1538,-0.8091 0.0432,-2.9355 0.0432,-3.8845 0,-1.7937 0.108,-11.0883 -0.0853,-11.5399 -0.5516,-0.0358 -4.7005,-0.121 -4.8374,0.0604 z"
           style="fill:#ffffff;fill-rule:evenodd"
           id="path1747" /><path
           d="m 449.6429,349.0735 0.043,3.6956 h -4.5583 l 0.0481,-15.3457 c -0.1338,0.1587 -0.1195,-0.1831 -0.1298,0.2962 l 0.0271,15.0769 c 0.4511,0.1531 4.1286,0.1386 4.6668,0.0215 0.0684,-0.4097 0.0755,-3.605 -0.0969,-3.7445 z"
           style="fill:#ffffff;fill-rule:evenodd"
           id="path1749" /><path
           d="m 530.3395,348.9893 -4.5874,0.0664 c -1.5347,0 -3.0786,-0.0169 -4.6121,10e-4 l 0.009,-2.4401 9.056,0.0225 c -0.3264,-0.166 -8.4057,-0.21 -9.1565,-0.0714 l 0.0115,2.5244 c 0.558,0.1231 9.1726,0.1249 9.2799,-0.1032 z"
           style="fill:#ffffff;fill-rule:evenodd"
           id="path1751" /><path
           d="m 533.5762,345.0725 -0.0621,-0.2247 -0.2036,0.1336 z"
           style="fill:#ffffff;fill-rule:evenodd"
           id="path1753" /><path
           d="m 625.3453,334.1919 0.2496,-0.0959 -0.1018,-0.1747 c -0.1352,0.2998 0.0909,0.0723 -0.1478,0.2706 z"
           style="fill:#ffffff;fill-rule:evenodd"
           id="path1755" /><path
           d="m 570.2528,337.706 0.009,11.3416 c 2.6784,0.1467 7.691,0.034 10.783,0.0353 l 0.005,3.7 -15.6105,-4e-4 -7e-4,-14.9765 z m -4.9325,15.2947 h 15.8864 V 348.958 H 570.337 v -11.4309 h -5.0167 z"
           style="fill:#ffffff;fill-rule:evenodd"
           id="path1757" /></g><path
         d="m -148.71125,133.18413 v 2.80162 h 131.508747 v -2.80162 z"
         style="fill:#e30016;fill-rule:evenodd;stroke-width:0.352778"
         id="path1760" /><path
         d="m -140.17833,107.86453 1.45461,-0.001 1.5203,0.001 c 0.3629,0.635 4.88142,9.15201 5.48901,10.3988 l -6.9764,0.0102 -6.97649,-0.0102 c 0.60769,-1.247 5.12649,-9.7645 5.48897,-10.3988 z m 11.45893,15.98292 -9.97141,-1.1e-4 -9.97151,1.1e-4 c -0.5358,0.99458 -1.73298,3.2349 -2.30339,4.30089 l -0.21011,-10e-4 -0.004,0.007 -7.06049,-0.004 13.59549,-25.43863 5.9534,2.1e-4 5.95359,-2.1e-4 13.59542,25.43863 -7.0605,0.004 -0.004,-0.007 -0.21007,10e-4 c -0.57041,-1.06599 -1.7676,-3.30631 -2.3034,-4.30089 z"
         style="fill:#ffffff;fill-rule:evenodd;stroke-width:0.352778"
         id="path1762" /><path
         d="m -67.470724,107.86453 1.454608,-0.001 1.520296,0.001 c 0.362902,0.635 4.881421,9.15201 5.48901,10.3988 l -6.976392,0.0102 -6.976498,-0.0102 c 0.607695,-1.247 5.126496,-9.7645 5.488976,-10.3988 z m 11.458892,15.98292 -9.97137,-1.1e-4 -9.97151,1.1e-4 c -0.535799,0.99458 -1.732986,3.2349 -2.303392,4.30089 l -0.210115,-10e-4 -0.0035,0.007 -7.060495,-0.004 13.595491,-25.43863 5.953407,2.1e-4 5.953584,-2.1e-4 13.59542,25.43863 -7.060494,0.004 -0.0035,-0.007 -0.210079,10e-4 c -0.570407,-1.06599 -1.767593,-3.30631 -2.303427,-4.30089 z"
         style="fill:#ffffff;fill-rule:evenodd;stroke-width:0.352778"
         id="path1764" /></g></g></svg>
