<?xml version="1.0" encoding="UTF-8" standalone="no"?>
<!-- Created with Inkscape (http://www.inkscape.org/) -->

<svg
   width="82.662643mm"
   height="51.975182mm"
   viewBox="0 0 82.662643 51.975182"
   version="1.1"
   id="svg1688"
   xml:space="preserve"
   xmlns:inkscape="http://www.inkscape.org/namespaces/inkscape"
   xmlns:sodipodi="http://sodipodi.sourceforge.net/DTD/sodipodi-0.dtd"
   xmlns="http://www.w3.org/2000/svg"
   xmlns:svg="http://www.w3.org/2000/svg"><sodipodi:namedview
     id="namedview1690"
     pagecolor="#ffffff"
     bordercolor="#000000"
     borderopacity="0.25"
     inkscape:showpageshadow="2"
     inkscape:pageopacity="0.0"
     inkscape:pagecheckerboard="0"
     inkscape:deskcolor="#d1d1d1"
     inkscape:document-units="mm"
     showgrid="false" /><defs
     id="defs1685" /><g
     inkscape:label="Camada 1"
     inkscape:groupmode="layer"
     id="layer1"
     transform="translate(224.02953,-62.287131)"><g
       id="g2641"><path
         d="m -202.66491,114.24971 v -0.0308 h 0.20402 c 0.0408,-0.008 0.0813,-0.0177 0.12112,-0.0282 v -0.0369 h 0.12277 c 0.092,-0.031 0.18098,-0.0686 0.26724,-0.11282 v -0.0173 h 0.0332 c 0.0328,-0.0177 0.0651,-0.0361 0.0969,-0.0559 v -0.009 h 0.015 l 0.0501,-0.0324 v -0.0324 h 0.0472 l 0.0178,-0.0127 v -0.0524 h 0.0687 l 0.0614,-0.0503 v -0.0147 h 0.0171 l 0.048,-0.0432 v -0.0219 h 0.0232 c 0.0384,-0.0367 0.0759,-0.0751 0.11263,-0.11503 1.83274,-2.00861 3.89529,-4.09109 5.97652,-6.25689 v -4e-4 h 4e-4 c 0.75943,-0.7904 1.5212,-1.59181 2.27528,-2.40491 v -0.001 h 0.001 c 0.23905,-0.25767 0.47721,-0.51648 0.71427,-0.77655 v -0.004 h 0.003 c 0.91015,-0.9983 1.80379,-2.01429 2.66253,-3.04838 v -0.008 h 0.007 c 0.10672,-0.12848 0.21287,-0.25715 0.31852,-0.38635 v -0.004 h 0.003 c 0.26303,-0.32147 0.52221,-0.64497 0.7775,-0.969913 v -0.0055 h 0.004 c 0.15171,-0.193168 0.30214,-0.386858 0.45071,-0.581351 v -0.004 h 0.003 c 0.19707,-0.257673 0.39114,-0.516666 0.5823,-0.776546 v -0.0036 h 0.003 c 0.10855,-0.147629 0.21583,-0.295498 0.32235,-0.443869 v -0.01141 h 0.008 c 0.59577,-0.830026 1.15962,-1.672015 1.68253,-2.525465 v -0.01049 h 0.006 c 0.0634,-0.103579 0.12667,-0.206963 0.18878,-0.310925 v -0.01421 h 0.008 c 0.0628,-0.105088 0.12515,-0.210682 0.18669,-0.316137 v -0.009 h 0.005 c 0.20054,-0.34375 0.39353,-0.689576 0.57991,-1.037185 v -0.0032 h 0.002 l 0.0634,-0.117797 v -0.01233 h 0.007 l 0.0583,-0.111688 v -0.01828 h 0.009 l 0.0557,-0.107083 v -0.02303 h 0.012 c 0.1534,-0.296228 0.30139,-0.59412 0.44329,-0.893078 v -0.01732 h 0.008 l 0.0566,-0.1215 v -0.0085 h 0.004 c 0.0877,-0.187817 0.17291,-0.376033 0.25622,-0.564975 v -0.02027 h 0.009 l 0.0559,-0.127557 v -0.0024 h 0.001 c 0.0511,-0.117985 0.10138,-0.236668 0.15064,-0.355016 l 6.2895,-0.591866 h -16.86892 c -2.09558,2.609141 -5.31198,4.279484 -8.91873,4.279484 -6.3153,0 -11.43472,-5.119462 -11.43472,-11.434058 0,-6.3153 5.11942,-11.434213 11.43472,-11.434213 3.66923,0 6.93438,1.728509 9.02659,4.415625 4.21432,0 4.55549,0 10.82492,0 -0.42974,-1.433392 -1.18472,-2.902386 -1.9357,-4.192556 v -0.0076 c -0.0394,-0.06285 -0.0798,-0.124964 -0.12,-0.187453 h -0.01 V 72.0022 c -0.16644,-0.258811 -0.33766,-0.514103 -0.51518,-0.764975 h -0.005 v -0.0074 c -0.0601,-0.08482 -0.12132,-0.168829 -0.18249,-0.252701 h -0.0125 v -0.01755 c -0.0595,-0.08144 -0.12,-0.161973 -0.18064,-0.242524 h -0.0144 v -0.01918 c -0.12755,-0.169012 -0.2575,-0.336011 -0.39002,-0.500997 h -1.4e-4 v -4.39e-4 c -0.10542,-0.131201 -0.2127,-0.26119 -0.32129,-0.389829 h -0.004 v -0.0048 l -0.0505,-0.0601 h -0.0146 v -0.01736 c -0.1259,-0.147812 -0.2544,-0.29361 -0.38415,-0.437959 h -0.006 v -0.0064 c -0.49043,-0.544356 -1.00842,-1.063371 -1.55234,-1.554233 h -0.008 v -0.0074 l -0.0649,-0.05751 h -1.4e-4 v -1.41e-4 c -0.12277,-0.109873 -0.24699,-0.218086 -0.37233,-0.325003 h -0.0177 v -0.0151 l -0.0584,-0.04996 h -0.007 v -0.0057 c -0.12793,-0.108029 -0.25735,-0.214566 -0.38786,-0.319456 h -0.002 v -0.002 c -0.0805,-0.06487 -0.16147,-0.12923 -0.24309,-0.192986 h -0.017 v -0.01346 c -0.0787,-0.06136 -0.15851,-0.121459 -0.23798,-0.181738 h -0.0221 v -0.01698 l -0.0634,-0.04789 h -0.002 v -0.0013 c -0.0581,-0.04348 -0.11666,-0.08607 -0.17512,-0.128807 h -0.0199 v -0.0146 c -0.0832,-0.06079 -0.16682,-0.120882 -0.25107,-0.180457 h -0.009 v -0.0064 c -0.24938,-0.176375 -0.50228,-0.347836 -0.75957,-0.513709 h -0.0208 v -0.01365 l -0.18454,-0.116475 h -0.0105 v -0.0067 c -0.35868,-0.225026 -0.72439,-0.439972 -1.09709,-0.643657 h -0.008 v -0.0046 l -0.11094,-0.06046 h -0.0192 v -0.01013 l -0.10358,-0.05475 h -0.0264 v -0.01398 c -0.29084,-0.153584 -0.58539,-0.301015 -0.88421,-0.441281 h -0.0262 v -0.01201 l -0.11537,-0.05306 h -0.0148 v -0.0069 l -0.12662,-0.05803 h -0.003 v -0.0015 c -0.14654,-0.06615 -0.29399,-0.130891 -0.44217,-0.193746 h -0.0131 v -0.0055 c -0.20847,-0.08834 -0.41881,-0.172912 -0.63056,-0.254574 h -0.0196 v -0.0077 c -0.16826,-0.06468 -0.33765,-0.126794 -0.5078,-0.18727 h -0.0125 v -0.0044 l -0.17347,-0.06066 h -0.0215 v -0.0075 l -0.17052,-0.05752 h -0.0245 v -0.0081 c -0.12585,-0.04185 -0.25214,-0.08238 -0.37893,-0.121825 h -0.0113 v -0.0035 c -0.14064,-0.04368 -0.28202,-0.0857 -0.42373,-0.126611 h -0.0313 v -0.0091 c -0.14618,-0.04185 -0.2931,-0.0822 -0.44053,-0.120896 h -0.0148 v -0.0039 l -0.23998,-0.06118 h -0.0201 v -0.005 c -0.27775,-0.06892 -0.55776,-0.132157 -0.83979,-0.190043 h -0.0706 v -0.01454 l -0.25988,-0.05052 h -0.0652 v -0.01215 c -0.0986,-0.01824 -0.19759,-0.03612 -0.29658,-0.05292 h -0.0286 v -0.0048 c -0.12572,-0.02121 -0.25181,-0.04129 -0.37804,-0.06029 h -0.012 v -0.0018 c -0.15185,-0.02267 -0.3043,-0.04368 -0.4571,-0.06324 h -0.0632 v -0.0079 c -0.16719,-0.02082 -0.33513,-0.03997 -0.50339,-0.05694 h -0.0819 v -0.0083 c -0.23943,-0.02303 -0.48032,-0.04165 -0.722,-0.05676 h -0.25327 v -0.01384 c -0.35591,-0.01806 -0.71368,-0.02782 -1.07425,-0.02782 -0.29379,0 -0.58577,0.0075 -0.8766,0.01937 v 0.02228 h -0.43519 c -0.26805,0.01641 -0.53492,0.03668 -0.80015,0.06305 v 0.002 h -0.0221 c -0.16662,0.0168 -0.33269,0.03556 -0.49824,0.0562 v 0.0087 h -0.0723 c -0.10616,0.01364 -0.21181,0.02913 -0.3174,0.04441 v 0.02064 h -0.14767 c -0.10282,0.01548 -0.20514,0.03284 -0.30763,0.04978 v 0.01529 h -0.0925 c -0.0993,0.01699 -0.19852,0.03411 -0.29749,0.05255 v 0.01251 h -0.0651 c -0.28367,0.05348 -0.56588,0.111182 -0.84533,0.175684 v 0.01933 h -0.079 l -0.18104,0.04409 v 0.02102 h -0.0861 c -0.0581,0.01436 -0.11629,0.02801 -0.174,0.04292 v 0.02214 h -0.082 l -0.17822,0.04827 v 0.01661 h -0.0616 c -0.0661,0.01824 -0.13252,0.03556 -0.19853,0.05455 v 0.01052 h -0.035 c -0.20644,0.05934 -0.41121,0.122571 -0.61508,0.188016 v 0.0072 h -0.0221 l -0.17306,0.0562 v 0.0087 h -0.0269 l -0.16813,0.05676 v 0.0083 h -0.0236 l -0.17142,0.06048 v 0.0046 h -0.0131 l -0.11704,0.04129 v 0.02378 h -0.0675 l -0.12755,0.04813 v 0.01675 h -0.0444 l -0.15077,0.05732 v 0.0077 h -0.0205 c -0.10193,0.03926 -0.20348,0.07927 -0.30467,0.120177 v 0.01 h -0.0245 c -0.25421,0.102863 -0.50673,0.2094 -0.75573,0.32185 v 0.0033 h -0.008 l -0.1222,0.05676 v 0.0081 h -0.0174 l -0.11277,0.05273 v 0.01233 h -0.0265 l -0.10362,0.04827 v 0.0168 h -0.0358 l -0.0942,0.04499 v 0.02008 h -0.0402 l -0.09,0.04479 v 0.02027 h -0.0409 l -0.089,0.04423 v 0.02064 h -0.0415 l -0.0887,0.04405 v 0.02102 h -0.0415 c -0.31612,0.162029 -0.62709,0.332364 -0.93379,0.509499 v 0.0107 h -0.0182 c -0.0593,0.03443 -0.11799,0.06985 -0.17696,0.104651 v 0.02548 h -0.0432 l -0.0868,0.05141 v 0.01365 h -0.0232 c -0.0577,0.0348 -0.11484,0.0704 -0.17196,0.105777 v 0.02416 h -0.0387 l -0.0912,0.05696 v 0.0081 h -0.013 c -0.0606,0.03814 -0.12201,0.07576 -0.18229,0.114463 v 0.01567 h -0.0239 c -0.25604,0.164986 -0.50804,0.335265 -0.75629,0.51095 v 0.0092 h -0.0133 c -0.0829,0.05883 -0.1646,0.118911 -0.24685,0.178824 v 0.01623 h -0.0221 c -0.0575,0.04218 -0.11577,0.08349 -0.17291,0.126048 v 0.0041 h -0.005 l -0.0597,0.04588 v 0.01899 h -0.0249 c -0.0789,0.05953 -0.15724,0.119812 -0.2352,0.180471 v 0.01472 h -0.0194 c -0.0809,0.06305 -0.16071,0.127174 -0.2407,0.191493 v 0.0035 h -0.004 c -0.12994,0.10451 -0.25857,0.210484 -0.38598,0.31795 v 0.0072 h -0.008 c -0.15063,0.127216 -0.29952,0.256418 -0.44663,0.387858 v 0.0024 h -0.002 l -0.0625,0.05545 v 0.0094 h -0.0107 l -0.0544,0.04827 v 0.01678 h -0.0182 l -0.0468,0.0435 v 0.02157 h -0.0231 l -0.042,0.03908 v 0.02599 h -0.028 c -0.39522,0.366235 -0.77622,0.747617 -1.14245,1.142837 v 0.02763 h -0.0256 l -0.0393,0.04222 v 0.02285 h -0.0214 l -0.0437,0.04701 v 0.01787 h -0.0162 l -0.0488,0.05493 v 0.01014 h -0.009 l -0.056,0.06324 v 0.0018 h -0.002 c -0.13158,0.147305 -0.26101,0.296609 -0.38838,0.447574 v 0.0075 h -0.006 c -0.10785,0.127738 -0.21382,0.256742 -0.31871,0.387069 v 0.0032 h -0.002 c -0.0647,0.08035 -0.12924,0.160903 -0.1928,0.242383 v 0.01768 h -0.0136 c -0.061,0.07834 -0.12145,0.157441 -0.18135,0.236668 v 0.02345 h -0.0181 l -0.047,0.06136 v 0.0037 h -0.003 c -0.0432,0.05766 -0.0846,0.116475 -0.12722,0.174558 v 0.02045 h -0.0149 c -0.0605,0.08275 -0.12094,0.165309 -0.18028,0.248999 v 0.01107 h -0.008 c -0.17601,0.249 -0.34691,0.502081 -0.5124,0.758865 v 0.02158 h -0.0142 c -0.0393,0.06098 -0.077,0.123092 -0.11573,0.184694 v 0.01032 h -0.006 l -0.0586,0.09381 v 0.03632 h -0.0227 l -0.10746,0.175108 v 0.01989 h -0.0118 l -0.0531,0.08978 v 0.04035 h -0.0239 l -0.1062,0.17971 v 0.0153 h -0.009 c -0.15466,0.267666 -0.30304,0.539372 -0.44606,0.814175 v 0.03114 h -0.0164 l -0.0486,0.09218 v 0.03795 h -0.0188 l -0.0462,0.09294 v 0.03701 h -0.0184 l -0.0466,0.09382 v 0.0363 h -0.0181 l -0.047,0.09457 v 0.03542 h -0.0175 l -0.0473,0.09916 v 0.03097 h -0.0144 l -0.0507,0.108353 v 0.02158 h -0.0101 l -0.0549,0.117799 v 0.01233 h -0.006 l -0.0594,0.128484 v 0.0015 h -8e-4 c -0.11338,0.251434 -0.22066,0.505966 -0.32444,0.762384 v 0.01806 h -0.007 c -0.019,0.047 -0.0389,0.09345 -0.0575,0.140633 v 0.05437 h -0.0208 l -0.0442,0.11649 v 0.01364 h -0.005 l -0.0599,0.157806 v 0.03721 h -0.0142 l -0.0508,0.136043 v 0.05896 h -0.0208 l -0.044,0.125161 v 0.005 h -0.002 l -0.0632,0.179514 v 0.01549 h -0.005 l -0.0597,0.177318 v 0.01788 h -0.006 l -0.0592,0.182484 v 0.01251 h -0.004 c -0.0665,0.207204 -0.1307,0.415674 -0.19098,0.625414 v 0.0249 h -0.007 c -0.0199,0.06985 -0.0383,0.140251 -0.0577,0.210299 v 0.04977 h -0.0134 c -0.0174,0.06356 -0.035,0.126795 -0.0516,0.19059 v 0.06949 h -0.0188 c -0.016,0.06229 -0.0307,0.125343 -0.0461,0.187817 v 0.07225 h -0.0177 c -0.0159,0.06488 -0.0323,0.129609 -0.0474,0.194673 v 0.06545 h -0.016 c -0.0173,0.07482 -0.0324,0.150387 -0.049,0.225407 v 0.03468 h -0.008 c -0.0437,0.200546 -0.0846,0.402217 -0.12259,0.604958 v 0.04532 h -0.009 c -0.0197,0.106396 -0.0381,0.213116 -0.0562,0.319835 v 0.135295 h -0.0225 c -0.0146,0.08973 -0.0291,0.179529 -0.0426,0.269637 v 0.120558 h -0.017 c -0.0166,0.115969 -0.0332,0.232066 -0.0481,0.348738 v 0.106524 h -0.0122 c -0.0194,0.159637 -0.0372,0.319652 -0.0529,0.480374 v 0.03983 h -0.004 c -0.0256,0.265227 -0.0457,0.532513 -0.0614,0.800517 v 0.499871 h -0.0229 c -0.009,0.246284 -0.0144,0.49365 -0.0144,0.742085 0,0.208512 0.005,0.416237 0.0123,0.623582 h 0.0249 v 0.497477 c 0.0118,0.181401 0.0265,0.362238 0.0439,0.542848 h 0.021 v 0.192422 c 0.0188,0.174744 0.0398,0.348962 0.0637,0.52296 h 0.001 v 0.0092 c 0.0145,0.105271 0.028,0.210865 0.0442,0.315937 h 0.0208 v 0.122206 c 0.0145,0.08942 0.0298,0.178639 0.0455,0.267861 h 0.0196 v 0.115351 c 0.0129,0.07004 0.0274,0.139928 0.0411,0.20978 h 0.0238 v 0.119433 c 0.0183,0.0903 0.0358,0.180654 0.0553,0.270778 h 0.01 v 0.04314 c 0.0206,0.09415 0.0424,0.188156 0.0643,0.281983 h 8e-4 v 0.0028 c 0.0201,0.0857 0.0404,0.171604 0.0616,0.257162 h 0.004 v 0.01397 c 0.0205,0.08224 0.0419,0.164225 0.0632,0.246088 h 0.002 v 0.0068 c 0.0164,0.06267 0.0319,0.125527 0.049,0.1882 h 0.0159 v 0.05549 c 0.0188,0.0684 0.0389,0.136424 0.0584,0.204572 h 0.007 v 0.02362 c 0.0164,0.05713 0.0319,0.114461 0.0489,0.171587 h 0.0162 v 0.05569 l 0.0435,0.139365 h 0.0215 v 0.06873 l 0.0599,0.191352 h 0.005 v 0.01604 l 0.0582,0.178962 h 0.007 v 0.02027 l 0.0595,0.174928 h 0.006 v 0.0166 c 0.0798,0.233515 0.16237,0.466328 0.25012,0.698586 h 0.01 v 0.02714 c 0.0377,0.0995 0.0774,0.198854 0.11648,0.298016 h 0.0136 v 0.03468 l 0.063,0.160523 h 0.002 v 0.0048 l 0.0514,0.12516 h 0.0137 v 0.03248 c 0.0402,0.09771 0.0811,0.195195 0.12258,0.292724 h 0.008 v 0.01808 l 0.0478,0.112055 h 0.0173 v 0.03927 c 0.0415,0.09546 0.0841,0.190594 0.12685,0.285685 h 0.003 v 0.007 c 0.40277,0.896922 0.8586,1.783536 1.36017,2.659117 h 0.005 v 0.0094 c 0.0604,0.105411 0.12277,0.210682 0.1845,0.315758 h 0.0107 v 0.01844 c 0.0603,0.102453 0.12089,0.204572 0.18229,0.306703 h 0.0127 v 0.02099 c 0.0612,0.101568 0.12203,0.202941 0.18432,0.304126 h 0.0107 v 0.01776 c 0.0632,0.102638 0.12811,0.205135 0.19261,0.30745 h 0.002 v 0.004 c 0.24609,0.390953 0.49935,0.780078 0.76108,1.16643 h 0.0191 v 0.02801 l 0.11484,0.167011 h 0.0153 v 0.02227 l 0.11892,0.172913 h 0.011 v 0.01604 l 0.12478,0.178962 h 0.005 v 0.0075 c 0.2118,0.302298 0.42763,0.603327 0.64755,0.902847 h 0.003 v 0.0036 c 0.0628,0.0857 0.12679,0.171037 0.19023,0.25636 h 0.005 v 0.0065 l 0.18947,0.253647 h 0.006 v 0.0072 l 0.19191,0.252884 h 0.003 v 0.0044 c 0.31505,0.413087 0.63723,0.82337 0.96494,1.231109 h 0.0103 v 0.0129 c 0.0839,0.10415 0.16738,0.20829 0.25201,0.31224 h 0.008 v 0.01 l 0.25895,0.31538 h 0.001 v 0.001 c 0.10708,0.12975 0.21456,0.2595 0.32255,0.38874 h 0.002 v 0.003 c 0.23577,0.28197 0.47389,0.56311 0.71407,0.84237 h 0.001 v 0.002 c 0.14913,0.17343 0.29896,0.34653 0.44954,0.51887 h 0.006 v 0.006 c 0.32205,0.36862 0.64681,0.73528 0.97401,1.09911 h 0.002 v 0.002 c 0.21495,0.2389 0.43115,0.47665 0.64775,0.71355 h 0.002 v 0.003 c 0.5808,0.63521 1.16619,1.26282 1.75214,1.88288 h 0.004 v 0.004 c 0.41216,0.43613 0.82413,0.86836 1.23464,1.29689 h 8e-4 v 8e-4 c 1.93392,2.01874 3.8321,3.95359 5.51797,5.80125 0.0367,0.0402 0.0741,0.0783 0.11258,0.11503 h 0.0265 v 0.0251 l 0.0448,0.04 h 0.0203 v 0.0175 l 0.0579,0.0476 h 0.0722 v 0.0546 l 0.0146,0.0105 h 0.0503 v 0.0347 l 0.047,0.0302 h 0.0181 v 0.0113 c 0.0308,0.0188 0.0621,0.0368 0.0938,0.0538 h 0.0363 v 0.019 c 0.0851,0.0435 0.17325,0.0806 0.26411,0.11113 h 0.1259 v 0.0376 c 0.0389,0.0103 0.0782,0.0193 0.11798,0.0275 h 0.20717 v 0.031 c 0.0741,0.007 0.14968,0.0111 0.22633,0.0111 0.0778,0 0.1541,-0.004 0.22897,-0.0113 z m 17.69213,-42.036385 -7.9e-4,-9.98e-4 h -0.005 z"
         style="fill:#e30016;fill-rule:evenodd;stroke-width:0.140773"
         id="path1692" /><g
         id="Layer1001"
         transform="matrix(0.14077295,0,0,0.14077295,-241.95636,46.37452)"
         style="fill:#000000"><path
           d="m 652.1739,360.7815 0.7691,-3e-4 c 0.8366,-2e-4 1.6595,0.0699 1.6921,1.0843 0.0331,1.0314 -0.7251,1.1793 -1.5843,1.1796 l -0.8769,6e-4 z m -0.9126,6.7453 0.8977,0.0438 0.0155,-3.6621 c 0.3966,0.1463 2.5653,3.2414 2.9205,3.6442 l 1.1323,0.0225 -2.8357,-3.6278 c 1.3202,-0.2081 2.1766,-0.3489 2.1659,-1.982 -0.0155,-2.381 -2.2687,-2.1039 -4.2973,-2.0221 z"
           style="fill:#000000;fill-rule:evenodd"
           id="path1694" /><path
           d="m 656.9912,367.5726 h 4.0475 l -6e-4,-0.8623 h -3.14 v -2.9106 h 3.1401 l -10e-5,-0.8619 -3.14,-6e-4 v -2.156 l 3.1401,-1e-4 -10e-5,-0.8623 h -4.0477 z"
           style="fill:#000000;fill-rule:evenodd"
           id="path1696" /><path
           d="m 649.6112,366.8652 0.0313,-1.1276 c -0.5987,0.2987 -0.7039,0.6501 -1.4995,0.9122 -0.7377,0.2429 -1.3843,0.2372 -2.1176,-0.0245 -2.7405,-0.9778 -2.6326,-4.9121 -0.0781,-5.839 1.6233,-0.5889 2.4375,-0.0369 3.6515,0.8264 l 0.0497,-1.0459 c -1.0939,-1.0118 -3.1001,-1.0713 -4.3869,-0.4588 -4.5059,2.1451 -1.4882,10.1378 4.3496,6.7572 z"
           style="fill:#000000;fill-rule:evenodd"
           id="path1698" /><path
           d="m 668.785,366.8652 0.0314,-1.1274 c -0.6311,0.3153 -1.625,1.5964 -3.617,0.887 -2.7405,-0.976 -2.6334,-4.9106 -0.0788,-5.8385 1.6161,-0.5869 2.4419,-0.0396 3.6513,0.8264 l 0.0505,-1.0456 c -1.9038,-1.7664 -6.5493,-0.8774 -6.5629,3.1247 -0.01,2.8029 2.8537,5.3019 6.5255,3.1734 z"
           style="fill:#000000;fill-rule:evenodd"
           id="path1700" /><path
           d="m 677.1854,360.8092 c 1.0196,-0.1049 2.4314,-0.0955 2.4182,1.2665 -0.0131,1.341 -1.4484,1.1845 -2.4407,1.1849 z m -0.9338,6.7176 0.8978,0.0438 0.015,-3.4476 h 1.0922 c 1.7551,0 2.7936,-1.2295 2.198,-2.9458 -0.5201,-1.4987 -2.8767,-1.4272 -4.203,-1.2173 z"
           style="fill:#000000;fill-rule:evenodd"
           id="path1702" /><path
           d="m 704.1225,363.5851 c 2.2939,-0.8348 2.9667,2.6977 1.0972,3.2616 -2.2527,0.6794 -2.9881,-2.5734 -1.0972,-3.2616 z m -0.2334,-0.696 c 0.4924,-0.8224 1.855,-1.89 2.265,-2.737 l -0.7253,-0.3254 c -0.5677,0.454 -2.2278,2.7149 -2.5993,3.4496 -2.6283,5.1951 4.0322,5.7037 4.3291,2.1457 0.0794,-0.9522 -0.1465,-1.606 -0.8428,-2.2155 -0.8263,-0.723 -1.5374,-0.4315 -2.4267,-0.3174 z"
           style="fill:#000000;fill-rule:evenodd"
           id="path1704" /><path
           d="m 696.0928,360.7807 3.5335,7e-4 c -0.4578,1.2975 -3.0507,5.9061 -3.1778,6.6813 l 0.6385,0.2094 c 0.4309,-0.4198 3.3103,-6.5344 3.8496,-7.5971 -1.2582,-0.1224 -3.4851,-0.0514 -4.8436,-0.0483 z"
           style="fill:#000000;fill-rule:evenodd"
           id="path1706" /><path
           d="m 708.8028,360.7812 h 3.5341 c -0.4567,1.2926 -3.0511,5.9093 -3.1777,6.6814 l 0.6378,0.209 c 0.4201,-0.4063 3.3222,-6.5504 3.8509,-7.5966 -1.2573,-0.1222 -3.4864,-0.0514 -4.8442,-0.0483 z"
           style="fill:#000000;fill-rule:evenodd"
           id="path1708" /><path
           d="m 681.4417,366.323 -0.5961,0.5584 c 0.8507,1.2632 3.2345,1.2012 3.2925,-1.0301 0.0484,-1.8557 0.0653,-4.0408 -0.007,-5.8863 l -0.8893,-0.0409 c -0.083,1.3692 0.163,6.0818 -0.199,6.6181 -0.4646,0.6881 -1.2036,0.0263 -1.6013,-0.2192 z"
           style="fill:#000000;fill-rule:evenodd"
           id="path1710" /><path
           d="m 670.348,367.1415 0.0117,0.4394 0.8891,-10e-4 0.0259,-0.4379 -0.004,-7.2228 h -0.9238 z"
           style="fill:#000000;fill-rule:evenodd"
           id="path1712" /><path
           d="m 688.9043,365.6322 h 1.8475 l 0.5981,-0.025 0.008,-0.4062 -0.003,-0.3852 -0.6023,-0.055 -1.848,0.009 z"
           style="fill:#000000;fill-rule:evenodd"
           id="path1714" /></g><path
         d="m -197.54835,78.419568 -8.64284,-0.01173 c -1.36532,0 -2.06939,0.444899 -2.22178,1.789002 -0.03,0.263595 -0.002,0.674795 -0.002,0.958901 0,0.35458 -0.0195,0.295498 -0.0195,0.654707 v 1.025856 c -0.006,1.457758 1.45948,1.70328 2.59463,1.70328 h 6.16459 v 1.779426 h -6.82786 v -0.830896 c -0.0867,0.002 -0.19698,0.04555 -0.28135,0.06915 -0.10797,0.03017 -0.18483,0.05097 -0.29233,0.07764 l -1.68929,0.471547 c 0,0.512513 -0.03,0.458387 0.0468,0.951064 0.22085,1.417203 1.61501,1.53427 2.76235,1.53427 1.91188,0 3.8236,0 5.73544,0 1.45791,0 2.6728,-0.218467 2.67333,-1.979381 V 84.983468 83.83017 c -1.4e-4,-1.045193 -1.02717,-1.44095 -1.98692,-1.556748 -0.14037,-0.01688 -0.26342,-0.03571 -0.43273,-0.03504 l -6.22319,4.4e-5 V 80.46242 h 8.64284 z"
         style="fill:#e30016;fill-rule:evenodd;stroke-width:0.140773"
         id="path1717" /><path
         d="m -145.47939,82.798664 h -4.97461 v -2.3613 h 4.72102 c 0.18981,0 0.33301,0.03368 0.49099,0.05527 0.36117,0.04936 0.44769,0.157034 0.5699,0.52272 0.0271,0.08101 0.0497,0.121033 0.052,0.221225 0.002,0.09016 -0.004,0.184664 -0.002,0.274744 0.003,0.09611 0.0288,0.144828 0.0196,0.251563 -0.005,0.06368 -0.0159,0.168547 -0.0268,0.247266 -0.0246,0.1766 -0.03,0.31488 -0.11387,0.432513 -0.1922,0.269425 -0.35458,0.356001 -0.7366,0.356001 z m -7.25707,5.717829 c 0,0.04496 0.0136,0.05854 0.0585,0.05854 h 2.16541 c 0.045,0 0.0585,-0.01357 0.0585,-0.05854 v -3.72733 h 1.77526 c 0.12531,0 0.46878,0.40806 0.58354,0.509105 0.003,0.0028 0.007,0.0065 0.0104,0.0091 0.19336,0.172996 0.3901,0.39622 0.5447,0.528446 l 0.32941,0.314473 c 0.18,0.180063 0.68576,0.687281 0.88371,0.852815 0.18308,0.153077 0.36241,0.37992 0.56383,0.548327 0.13183,0.110239 0.23655,0.224968 0.35697,0.345442 l 0.54623,0.526887 c 0.059,0.05901 0.10018,0.14132 0.19936,0.151851 0.2312,0.02454 0.50063,-0.0093 0.70281,-0.02023 0.26412,-0.01429 2.36167,0.02291 2.4601,-0.01748 0.18885,-0.07743 0.16728,-0.314461 -0.0259,-0.524409 -0.0773,-0.08404 -0.17043,-0.134509 -0.25404,-0.214213 l -0.25327,-0.215004 c -0.25953,-0.231248 -0.80862,-0.661898 -1.01477,-0.858318 l -1.01442,-0.858645 c -0.16447,-0.15668 -1.21367,-1.004288 -1.26316,-1.07821 0.64555,0 1.33873,0.03807 1.81157,-0.13931 0.11615,-0.04357 0.22707,-0.0973 0.3349,-0.152836 l 0.2701,-0.217689 c 0.24527,-0.29419 0.46858,-0.595063 0.471,-1.011962 9.9e-4,-0.159524 0.031,-0.304041 0.0388,-0.449109 0.0168,-0.311922 -9e-5,-0.677413 -9e-5,-0.995349 0,-0.337501 0.0195,-0.612461 0.0195,-0.956215 v -1.034287 c 0,-0.407805 -0.21188,-0.740972 -0.50443,-0.978526 -0.13186,-0.107059 -0.2788,-0.22559 -0.44833,-0.293076 -0.14279,-0.05684 -0.39042,-0.152976 -0.58839,-0.152976 h -8.81774 z"
         style="fill:#e30016;fill-rule:evenodd;stroke-width:0.140773"
         id="path1719" /><path
         d="m -181.80295,88.575029 h 1.95082 v -6.67406 c 0.0206,0.02378 -0.005,-0.0097 0.0264,0.03216 l 2.2892,3.096131 c 0.17094,0.209445 0.45719,0.639352 0.62727,0.855633 l 0.81385,1.098325 c 0.30112,0.399513 0.14043,0.323371 0.71069,0.323371 0.0592,0 0.0882,-0.07191 0.14491,-0.147769 0.0467,-0.06255 0.0806,-0.107581 0.12539,-0.167298 l 3.80692,-5.090543 v 6.674059 h 2.18494 v -10.1672 h -2.12642 c -0.0154,0.05781 -0.0764,0.127442 -0.11403,0.178655 l -1.16965,1.620563 c -0.0867,0.127258 -0.17395,0.234867 -0.26133,0.363056 -0.0846,0.124129 -0.16884,0.241735 -0.26088,0.363514 -0.0521,0.06895 -0.0817,0.113041 -0.12909,0.183104 l -1.42317,1.97192 c -0.0894,0.118375 -0.76337,1.042284 -0.77759,1.095564 h -0.039 c -0.0157,-0.05897 -0.085,-0.132805 -0.12538,-0.186791 l -0.68789,-0.892596 c -0.051,-0.06239 -0.0846,-0.112506 -0.13408,-0.178108 l -0.69697,-0.903003 c -0.58031,-0.778107 -1.21348,-1.563959 -1.79769,-2.338858 l -0.96685,-1.27702 h -1.97033 z"
         style="fill:#e30016;fill-rule:evenodd;stroke-width:0.140773"
         id="path1721" /><g
         id="Layer1002"
         transform="matrix(0.14077295,0,0,0.14077295,-241.95636,46.37452)"
         style="fill:#000000"><path
           d="m 449.6429,349.0735 0.0158,-4.5329 -0.009,-3.1938 0.7927,-0.004 5.804,11.4548 3.828,0.006 5.8552,-11.5144 0.7015,0.001 -0.0676,11.5082 4.5543,-0.0102 c 0.2161,-1.6516 -0.1584,-14.3568 0.0842,-15.3709 l -8.3757,-0.002 c -0.4338,0.3032 -2.0174,4.1629 -2.3931,4.9543 -0.4714,0.9931 -1.8078,4.3268 -2.3054,4.9587 -0.7214,-1.3308 -4.1554,-9.5507 -4.6615,-9.9129 l -8.2905,0.008 -0.0481,15.3457 h 4.5583 z m 0.712,-7.7786 c 0.0199,0.01 0.0399,0.0202 0.0605,0.032 -0.0185,-0.0104 -0.0388,-0.0213 -0.0605,-0.032 z"
           style="fill:#000000;fill-rule:evenodd"
           id="path1723" /><path
           d="m 530.3395,348.9893 c -0.1073,0.2281 -8.7219,0.2263 -9.2799,0.1032 l -0.0115,-2.5244 c 0.7508,-0.1386 8.8301,-0.0946 9.1565,0.0714 1.5863,-0.226 1.5472,2.3618 0.1349,2.3498 z m -9.266,-5.4969 10e-4,-2.4515 c 2.2577,0.003 5.952,-0.0765 8.1061,0.0285 0.9356,0.0456 1.629,0.006 1.6062,1.1956 -0.0209,1.0873 -0.5887,1.1297 -1.5128,1.1758 -2.4337,0.1214 -5.6985,0.0401 -8.2009,0.0516 z m 10.2952,9.2171 c 2.1759,0.004 4.1854,-0.3891 4.4384,-2.6787 0.2721,-1.8651 0.1961,-4.7886 -2.2309,-4.9583 l -0.2657,-0.0911 0.2036,-0.1336 c 2.0178,-0.4009 2.0216,-3.4707 1.6658,-5.0718 -0.528,-2.3759 -2.6041,-2.2588 -4.6088,-2.3292 -4.5859,-0.1608 -9.3016,0.0129 -13.9064,-0.0335 l 0.005,15.3341 z"
           style="fill:#000000;fill-rule:evenodd"
           id="path1725" /><path
           d="m 490.1053,341.3128 c 1.5804,-0.1357 3.1942,-0.1128 4.7862,-0.1015 4.2159,0.0296 5.0332,-0.2662 4.8427,4.9481 -0.0641,1.7551 -0.2,2.5439 -2.0757,2.7771 -1.3772,0.1711 -3.3858,0.111 -4.8058,0.089 -1.0848,-0.0168 -3.4043,0.1055 -4.2225,-0.5882 -0.8144,-0.6905 -0.6545,-3.2912 -0.5862,-4.3186 0.1119,-1.6831 0.1212,-2.639 2.0613,-2.8059 z m -6.7531,5.7739 c 0.1182,2.8597 0.3154,5.1706 3.5636,5.6819 2.5674,0.4041 6.2417,0.261 8.9025,0.2414 8.1,-0.0596 8.8299,-0.39 8.5693,-9.8227 -0.0767,-2.7776 -0.3554,-5.1954 -3.4879,-5.6968 -2.5948,-0.4154 -6.2905,-0.295 -8.9738,-0.2678 -2.5497,0.0259 -6.1908,-0.2242 -7.6362,1.6681 -1.1881,1.5555 -1.0205,6.1867 -0.9375,8.1959 z"
           style="fill:#000000;fill-rule:evenodd"
           id="path1727" /><path
           d="m 647.7354,341.2847 c 1.9381,7e-4 3.8762,1e-4 5.8143,0 2.9368,-10e-5 3.886,-0.4041 3.8648,1.9074 -0.008,0.8925 -0.0752,1.6845 -1.1136,1.7951 -1.3052,0.1392 -7.0248,0.0584 -8.6162,0.0665 z m 8.3087,7.6672 c 1.838,0.2582 1.07,2.3121 1.3409,3.8467 l 4.5511,-0.01 c 0.0997,-0.7385 0.0501,-3.3455 -0.0787,-4.1012 -0.2178,-1.2771 -1.2475,-1.6042 -2.3543,-1.8306 1.4669,-0.7829 2.7529,0.0709 2.616,-5.1497 -0.0654,-2.4896 -0.8102,-4.1638 -3.563,-4.2324 -5.1641,-0.1289 -10.3533,0.0637 -15.497,-0.0658 l 0.008,15.3095 4.6033,9e-4 -0.0309,-3.817 c 1.8213,0.0328 7.0597,-0.1395 8.4046,0.0491 z"
           style="fill:#000000;fill-rule:evenodd"
           id="path1729" /><path
           d="m 701.3795,341.0088 0.815,0.002 c 0.2815,0.2881 2.7148,5.1554 2.9941,5.822 l -6.8293,-0.0125 z m -4.6465,9.1885 10.0116,-10e-5 c 0.4783,0.3555 1.0573,1.9774 1.4374,2.6009 l 5.2845,-0.024 -7.9806,-15.3582 -7.1746,-2e-4 c -0.4274,0.2476 -1.8307,3.1745 -2.1399,3.8205 -0.9183,1.9186 -5.9861,10.9531 -6.0816,11.5628 l 5.2794,0.002 z"
           style="fill:#000000;fill-rule:evenodd"
           id="path1731" /><path
           d="m 616.8636,346.8211 c 0.2318,-0.5865 2.7485,-5.5559 2.9867,-5.8112 l 0.8789,-0.008 2.9285,5.8308 z m -1.675,3.3772 10.0956,0.006 c 0.6006,0.6556 0.739,1.906 1.4009,2.5927 l 5.2294,-0.003 c -0.1046,-0.4008 -3.5081,-6.8101 -3.9906,-7.6958 -0.4368,-0.8022 -3.8078,-7.5949 -4.1226,-7.6827 l -7.1449,0.0166 -8.1024,15.3654 5.3073,0.006 z"
           style="fill:#000000;fill-rule:evenodd"
           id="path1733" /><path
           d="m 570.2316,348.8145 -0.0152,-11.3969 -4.8566,0.0203 -0.004,15.3219 15.7333,7e-4 0.0107,-3.8527 c -1.8295,9e-4 -3.6591,3e-4 -5.4885,3e-4 -0.7474,0 -5.0178,0.1292 -5.3792,-0.0936 z"
           style="fill:#000000;fill-rule:evenodd"
           id="path1735" /><path
           d="m 592.5503,337.4159 c 0.01,1.8676 -0.1562,14.7512 0.0794,15.3826 l 4.8084,-0.005 c 0.2084,-1.4152 -0.1458,-14.3213 0.0836,-15.3762 z"
           style="fill:#000000;fill-rule:evenodd"
           id="path1737" /><path
           d="m 547.875,337.4152 c 0.003,1.2796 -0.097,14.5843 0.0496,15.4485 0.4115,-0.125 4.452,-0.1305 4.8659,-0.004 l 0.004,-15.441 z"
           style="fill:#000000;fill-rule:evenodd"
           id="path1739" /><path
           d="m 427.724,337.4621 0.005,15.2971 4.8392,-4e-4 -0.0162,-15.2781 z"
           style="fill:#000000;fill-rule:evenodd"
           id="path1741" /><path
           d="m 674.119,352.7588 4.8365,6e-4 0.003,-15.2781 -4.8285,6e-4 z"
           style="fill:#000000;fill-rule:evenodd"
           id="path1743" /><path
           d="m 625.3453,334.1919 c 0.2387,-0.1983 0.0126,0.0292 0.1478,-0.2706 l -1.7276,-3.3954 -5.7072,4.0294 0.922,1.7752 c 0.5427,-0.0296 2.5235,-0.8404 3.2066,-1.0586 1.013,-0.3237 2.1632,-0.8499 3.1584,-1.08 z"
           style="fill:#000000;fill-rule:evenodd"
           id="path1745" /><path
           d="m 427.724,337.4621 4.828,0.0186 0.0162,15.2781 -4.8392,4e-4 z m 0,0 c -0.085,0.1127 -0.0845,-0.1815 -0.0885,0.2575 l 0.0223,15.0687 c 0.4179,0.1298 4.344,0.1061 4.9457,0.0378 0.1538,-0.8091 0.0432,-2.9355 0.0432,-3.8845 0,-1.7937 0.108,-11.0883 -0.0853,-11.5399 -0.5516,-0.0358 -4.7005,-0.121 -4.8374,0.0604 z"
           style="fill:#000000;fill-rule:evenodd"
           id="path1747" /><path
           d="m 449.6429,349.0735 0.043,3.6956 h -4.5583 l 0.0481,-15.3457 c -0.1338,0.1587 -0.1195,-0.1831 -0.1298,0.2962 l 0.0271,15.0769 c 0.4511,0.1531 4.1286,0.1386 4.6668,0.0215 0.0684,-0.4097 0.0755,-3.605 -0.0969,-3.7445 z"
           style="fill:#000000;fill-rule:evenodd"
           id="path1749" /><path
           d="m 530.3395,348.9893 -4.5874,0.0664 c -1.5347,0 -3.0786,-0.0169 -4.6121,10e-4 l 0.009,-2.4401 9.056,0.0225 c -0.3264,-0.166 -8.4057,-0.21 -9.1565,-0.0714 l 0.0115,2.5244 c 0.558,0.1231 9.1726,0.1249 9.2799,-0.1032 z"
           style="fill:#000000;fill-rule:evenodd"
           id="path1751" /><path
           d="m 533.5762,345.0725 -0.0621,-0.2247 -0.2036,0.1336 z"
           style="fill:#000000;fill-rule:evenodd"
           id="path1753" /><path
           d="m 625.3453,334.1919 0.2496,-0.0959 -0.1018,-0.1747 c -0.1352,0.2998 0.0909,0.0723 -0.1478,0.2706 z"
           style="fill:#000000;fill-rule:evenodd"
           id="path1755" /><path
           d="m 570.2528,337.706 0.009,11.3416 c 2.6784,0.1467 7.691,0.034 10.783,0.0353 l 0.005,3.7 -15.6105,-4e-4 -7e-4,-14.9765 z m -4.9325,15.2947 h 15.8864 V 348.958 H 570.337 v -11.4309 h -5.0167 z"
           style="fill:#000000;fill-rule:evenodd"
           id="path1757" /></g><path
         d="m -193.97515,90.578013 v 1.117962 h 52.47744 v -1.117962 z"
         style="fill:#e30016;fill-rule:evenodd;stroke-width:0.140773"
         id="path1760" /><path
         d="m -190.57016,80.474443 0.58045,-3.99e-4 0.60666,3.99e-4 c 0.14481,0.253392 1.94789,3.652032 2.19034,4.149553 l -2.78387,0.0041 -2.78391,-0.0041 c 0.24249,-0.497605 2.04568,-3.896441 2.19033,-4.149553 z m 4.57259,6.377848 -3.97901,-4.4e-5 -3.97905,4.4e-5 c -0.2138,0.396878 -0.69153,1.290859 -0.91914,1.716233 l -0.0838,-3.99e-4 -0.002,0.0028 -2.81743,-0.0016 5.42516,-10.151067 2.37566,8.3e-5 2.37573,-8.3e-5 5.42513,10.151067 -2.81743,0.0016 -0.002,-0.0028 -0.0838,3.99e-4 c -0.22762,-0.425374 -0.70535,-1.319355 -0.91916,-1.716233 z"
         style="fill:#000000;fill-rule:evenodd;stroke-width:0.140773"
         id="path1762" /><path
         d="m -161.55681,80.474443 0.58044,-3.99e-4 0.60667,3.99e-4 c 0.14481,0.253392 1.94788,3.652032 2.19034,4.149553 l -2.78387,0.0041 -2.78391,-0.0041 c 0.24249,-0.497605 2.04568,-3.896441 2.19033,-4.149553 z m 4.57257,6.377848 -3.97899,-4.4e-5 -3.97905,4.4e-5 c -0.2138,0.396878 -0.69153,1.290859 -0.91915,1.716233 l -0.0838,-3.99e-4 -0.001,0.0028 -2.81743,-0.0016 5.42517,-10.151067 2.37565,8.3e-5 2.37573,-8.3e-5 5.42514,10.151067 -2.81743,0.0016 -0.001,-0.0028 -0.0838,3.99e-4 c -0.22762,-0.425374 -0.70534,-1.319355 -0.91916,-1.716233 z"
         style="fill:#000000;fill-rule:evenodd;stroke-width:0.140773"
         id="path1764" /></g></g></svg>
