<?xml version="1.0" encoding="UTF-8" standalone="no"?>
<!-- Created with Inkscape (http://www.inkscape.org/) -->

<svg
   width="41.853199mm"
   height="51.975182mm"
   viewBox="0 0 41.853199 51.975182"
   version="1.1"
   id="svg1688"
   xml:space="preserve"
   xmlns="http://www.w3.org/2000/svg"
   xmlns:svg="http://www.w3.org/2000/svg"><defs
     id="defs1685" /><g
     id="layer1"
     transform="translate(224.02952,-62.287128)"><g
       id="g388"><path
         d="m -202.66491,114.24971 v -0.0308 h 0.20402 c 0.0408,-0.008 0.0813,-0.0177 0.12112,-0.0282 v -0.0369 h 0.12277 c 0.092,-0.031 0.18098,-0.0686 0.26724,-0.11282 v -0.0173 h 0.0332 c 0.0328,-0.0177 0.0651,-0.0361 0.0969,-0.0559 v -0.009 h 0.015 l 0.0501,-0.0324 v -0.0324 h 0.0472 l 0.0178,-0.0127 v -0.0524 h 0.0687 l 0.0614,-0.0503 v -0.0147 h 0.0171 l 0.048,-0.0432 v -0.0219 h 0.0232 c 0.0384,-0.0367 0.0759,-0.0751 0.11263,-0.11503 1.83274,-2.00861 3.89529,-4.09109 5.97652,-6.25689 v -4e-4 h 4e-4 c 0.75943,-0.7904 1.5212,-1.59181 2.27528,-2.40491 v -0.001 h 0.001 c 0.23905,-0.25767 0.47721,-0.51648 0.71427,-0.77655 v -0.004 h 0.003 c 0.91015,-0.9983 1.80379,-2.01429 2.66253,-3.04838 v -0.008 h 0.007 c 0.10672,-0.12848 0.21287,-0.25715 0.31852,-0.38635 v -0.004 h 0.003 c 0.26303,-0.32147 0.52221,-0.64497 0.7775,-0.969913 v -0.0055 h 0.004 c 0.15171,-0.193168 0.30214,-0.386858 0.45071,-0.581351 v -0.004 h 0.003 c 0.19707,-0.257673 0.39114,-0.516666 0.5823,-0.776546 v -0.0036 h 0.003 c 0.10855,-0.147629 0.21583,-0.295498 0.32235,-0.443869 v -0.01141 h 0.008 c 0.59577,-0.830026 1.15962,-1.672015 1.68253,-2.525465 v -0.01049 h 0.006 c 0.0634,-0.103579 0.12667,-0.206963 0.18878,-0.310925 v -0.01421 h 0.008 c 0.0628,-0.105088 0.12515,-0.210682 0.18669,-0.316137 v -0.009 h 0.005 c 0.20054,-0.34375 0.39353,-0.689576 0.57991,-1.037185 v -0.0032 h 0.002 l 0.0634,-0.117797 v -0.01233 h 0.007 l 0.0583,-0.111688 v -0.01828 h 0.009 l 0.0557,-0.107083 v -0.02303 h 0.012 c 0.1534,-0.296228 0.30139,-0.59412 0.44329,-0.893078 v -0.01732 h 0.008 l 0.0566,-0.1215 v -0.0085 h 0.004 c 0.0877,-0.187817 0.17291,-0.376033 0.25622,-0.564975 v -0.02027 h 0.009 l 0.0559,-0.127557 v -0.0024 h 0.001 c 0.0511,-0.117985 0.10138,-0.236668 0.15064,-0.355016 l 0.17319,-0.591866 h -10.75261 c -2.09558,2.609141 -5.31198,4.279484 -8.91873,4.279484 -6.3153,0 -11.43472,-5.119462 -11.43472,-11.434058 0,-6.3153 5.11942,-11.434213 11.43472,-11.434213 3.66923,0 6.93438,1.728509 9.02659,4.415625 h 10.82492 c -0.42974,-1.433392 -1.18472,-2.902386 -1.9357,-4.192556 v -0.0076 c -0.0394,-0.06285 -0.0798,-0.124964 -0.12,-0.187453 h -0.01 V 72.0022 c -0.16644,-0.258811 -0.33766,-0.514103 -0.51518,-0.764975 h -0.005 v -0.0074 c -0.0601,-0.08482 -0.12132,-0.168829 -0.18249,-0.252701 h -0.0125 v -0.01755 c -0.0595,-0.08144 -0.12,-0.161973 -0.18064,-0.242524 h -0.0144 v -0.01918 c -0.12755,-0.169012 -0.2575,-0.336011 -0.39002,-0.500997 h -1.4e-4 v -4.39e-4 c -0.10542,-0.131201 -0.2127,-0.26119 -0.32129,-0.389829 h -0.004 v -0.0048 l -0.0505,-0.0601 h -0.0146 v -0.01736 c -0.1259,-0.147812 -0.2544,-0.29361 -0.38415,-0.437959 h -0.006 v -0.0064 c -0.49043,-0.544356 -1.00842,-1.063371 -1.55234,-1.554233 h -0.008 v -0.0074 l -0.0649,-0.05751 h -1.4e-4 v -1.41e-4 c -0.12277,-0.109873 -0.24699,-0.218086 -0.37233,-0.325003 h -0.0177 v -0.0151 l -0.0584,-0.04996 h -0.007 v -0.0057 c -0.12793,-0.108029 -0.25735,-0.214566 -0.38786,-0.319456 h -0.002 v -0.002 c -0.0805,-0.06487 -0.16147,-0.12923 -0.24309,-0.192986 h -0.017 v -0.01346 c -0.0787,-0.06136 -0.15851,-0.121459 -0.23798,-0.181738 h -0.0221 v -0.01698 l -0.0634,-0.04789 h -0.002 v -0.0013 c -0.0581,-0.04348 -0.11666,-0.08607 -0.17512,-0.128807 h -0.0199 v -0.0146 c -0.0832,-0.06079 -0.16682,-0.120882 -0.25107,-0.180457 h -0.009 v -0.0064 c -0.24938,-0.176375 -0.50228,-0.347836 -0.75957,-0.513709 h -0.0208 v -0.01365 l -0.18454,-0.116475 h -0.0105 v -0.0067 c -0.35868,-0.225026 -0.72439,-0.439972 -1.09709,-0.643657 h -0.008 v -0.0046 l -0.11094,-0.06046 h -0.0192 v -0.01013 l -0.10358,-0.05475 h -0.0264 v -0.01398 c -0.29084,-0.153584 -0.58539,-0.301015 -0.88421,-0.441281 h -0.0262 v -0.01201 l -0.11537,-0.05306 h -0.0148 v -0.0069 l -0.12662,-0.05803 h -0.003 v -0.0015 c -0.14654,-0.06615 -0.29399,-0.130891 -0.44217,-0.193746 h -0.0131 v -0.0055 c -0.20847,-0.08834 -0.41881,-0.172912 -0.63056,-0.254574 h -0.0196 v -0.0077 c -0.16826,-0.06468 -0.33765,-0.126794 -0.5078,-0.18727 h -0.0125 v -0.0044 l -0.17347,-0.06066 h -0.0215 v -0.0075 l -0.17052,-0.05752 h -0.0245 v -0.0081 c -0.12585,-0.04185 -0.25214,-0.08238 -0.37893,-0.121825 h -0.0113 v -0.0035 c -0.14064,-0.04368 -0.28202,-0.0857 -0.42373,-0.126611 h -0.0313 v -0.0091 c -0.14618,-0.04185 -0.2931,-0.0822 -0.44053,-0.120896 h -0.0148 v -0.0039 l -0.23998,-0.06118 h -0.0201 v -0.005 c -0.27775,-0.06892 -0.55776,-0.132157 -0.83979,-0.190043 h -0.0706 v -0.01454 l -0.25988,-0.05052 h -0.0652 v -0.01215 c -0.0986,-0.01824 -0.19759,-0.03612 -0.29658,-0.05292 h -0.0286 v -0.0048 c -0.12572,-0.02121 -0.25181,-0.04129 -0.37804,-0.06029 h -0.012 v -0.0018 c -0.15185,-0.02267 -0.3043,-0.04368 -0.4571,-0.06324 h -0.0632 v -0.0079 c -0.16719,-0.02082 -0.33513,-0.03997 -0.50339,-0.05694 h -0.0819 v -0.0083 c -0.23943,-0.02303 -0.48032,-0.04165 -0.722,-0.05676 h -0.25327 v -0.01384 c -0.35591,-0.01806 -0.71368,-0.02782 -1.07425,-0.02782 -0.29379,0 -0.58577,0.0075 -0.8766,0.01937 v 0.02228 h -0.43519 c -0.26805,0.01641 -0.53492,0.03668 -0.80015,0.06305 v 0.002 h -0.0221 c -0.16662,0.0168 -0.33269,0.03556 -0.49824,0.0562 v 0.0087 h -0.0723 c -0.10616,0.01364 -0.21181,0.02913 -0.3174,0.04441 v 0.02064 h -0.14767 c -0.10282,0.01548 -0.20514,0.03284 -0.30763,0.04978 v 0.01529 h -0.0925 c -0.0993,0.01699 -0.19852,0.03411 -0.29749,0.05255 v 0.01251 h -0.0651 c -0.28367,0.05348 -0.56588,0.111182 -0.84533,0.175684 v 0.01933 h -0.079 l -0.18104,0.04409 v 0.02102 h -0.0861 c -0.0581,0.01436 -0.11629,0.02801 -0.174,0.04292 v 0.02214 h -0.082 l -0.17822,0.04827 v 0.01661 h -0.0616 c -0.0661,0.01824 -0.13252,0.03556 -0.19853,0.05455 v 0.01052 h -0.035 c -0.20644,0.05934 -0.41121,0.122571 -0.61508,0.188016 v 0.0072 h -0.0221 l -0.17306,0.0562 v 0.0087 h -0.0269 l -0.16813,0.05676 v 0.0083 h -0.0236 l -0.17142,0.06048 v 0.0046 h -0.0131 l -0.11704,0.04129 v 0.02378 h -0.0675 l -0.12755,0.04813 v 0.01675 h -0.0444 l -0.15077,0.05732 v 0.0077 h -0.0205 c -0.10193,0.03926 -0.20348,0.07927 -0.30467,0.120177 v 0.01 h -0.0245 c -0.25421,0.102863 -0.50673,0.2094 -0.75573,0.32185 v 0.0033 h -0.008 l -0.1222,0.05676 v 0.0081 h -0.0174 l -0.11277,0.05273 v 0.01233 h -0.0265 l -0.10362,0.04827 v 0.0168 h -0.0358 l -0.0942,0.04499 v 0.02008 h -0.0402 l -0.09,0.04479 v 0.02027 h -0.0409 l -0.089,0.04423 v 0.02064 h -0.0415 l -0.0887,0.04405 v 0.02102 h -0.0415 c -0.31612,0.162029 -0.62709,0.332364 -0.93379,0.509499 v 0.0107 h -0.0182 c -0.0593,0.03443 -0.11799,0.06985 -0.17696,0.104651 v 0.02548 h -0.0432 l -0.0868,0.05141 v 0.01365 h -0.0232 c -0.0577,0.0348 -0.11484,0.0704 -0.17196,0.105777 v 0.02416 h -0.0387 l -0.0912,0.05696 v 0.0081 h -0.013 c -0.0606,0.03814 -0.12201,0.07576 -0.18229,0.114463 v 0.01567 h -0.0239 c -0.25604,0.164986 -0.50804,0.335265 -0.75629,0.51095 v 0.0092 h -0.0133 c -0.0829,0.05883 -0.1646,0.118911 -0.24685,0.178824 v 0.01623 h -0.0221 c -0.0575,0.04218 -0.11577,0.08349 -0.17291,0.126048 v 0.0041 h -0.005 l -0.0597,0.04588 v 0.01899 h -0.0249 c -0.0789,0.05953 -0.15724,0.119812 -0.2352,0.180471 v 0.01472 h -0.0194 c -0.0809,0.06305 -0.16071,0.127174 -0.2407,0.191493 v 0.0035 h -0.004 c -0.12994,0.10451 -0.25857,0.210484 -0.38598,0.31795 v 0.0072 h -0.008 c -0.15063,0.127216 -0.29952,0.256418 -0.44663,0.387858 v 0.0024 h -0.002 l -0.0625,0.05545 v 0.0094 h -0.0107 l -0.0544,0.04827 v 0.01678 h -0.0182 l -0.0468,0.0435 v 0.02157 h -0.0231 l -0.042,0.03908 v 0.02599 h -0.028 c -0.39522,0.366235 -0.77622,0.747617 -1.14245,1.142837 v 0.02763 h -0.0256 l -0.0393,0.04222 v 0.02285 h -0.0214 l -0.0437,0.04701 v 0.01787 h -0.0162 l -0.0488,0.05493 v 0.01014 h -0.009 l -0.056,0.06324 v 0.0018 h -0.002 c -0.13158,0.147305 -0.26101,0.296609 -0.38838,0.447574 v 0.0075 h -0.006 c -0.10785,0.127738 -0.21382,0.256742 -0.31871,0.387069 v 0.0032 h -0.002 c -0.0647,0.08035 -0.12924,0.160903 -0.1928,0.242383 v 0.01768 h -0.0136 c -0.061,0.07834 -0.12145,0.157441 -0.18135,0.236668 v 0.02345 h -0.0181 l -0.047,0.06136 v 0.0037 h -0.003 c -0.0432,0.05766 -0.0846,0.116475 -0.12722,0.174558 v 0.02045 h -0.0149 c -0.0605,0.08275 -0.12094,0.165309 -0.18028,0.248999 v 0.01107 h -0.008 c -0.17601,0.249 -0.34691,0.502081 -0.5124,0.758865 v 0.02158 h -0.0142 c -0.0393,0.06098 -0.077,0.123092 -0.11573,0.184694 v 0.01032 h -0.006 l -0.0586,0.09381 v 0.03632 h -0.0227 l -0.10746,0.175108 v 0.01989 h -0.0118 l -0.0531,0.08978 v 0.04035 h -0.0239 l -0.1062,0.17971 v 0.0153 h -0.009 c -0.15466,0.267666 -0.30304,0.539372 -0.44606,0.814175 v 0.03114 h -0.0164 l -0.0486,0.09218 v 0.03795 h -0.0188 l -0.0462,0.09294 v 0.03701 h -0.0184 l -0.0466,0.09382 v 0.0363 h -0.0181 l -0.047,0.09457 v 0.03542 h -0.0175 l -0.0473,0.09916 v 0.03097 h -0.0144 l -0.0507,0.108353 v 0.02158 h -0.0101 l -0.0549,0.117799 v 0.01233 h -0.006 l -0.0594,0.128484 v 0.0015 h -8e-4 c -0.11338,0.251434 -0.22066,0.505966 -0.32444,0.762384 v 0.01806 h -0.007 c -0.019,0.047 -0.0389,0.09345 -0.0575,0.140633 v 0.05437 h -0.0208 l -0.0442,0.11649 v 0.01364 h -0.005 l -0.0599,0.157806 v 0.03721 h -0.0142 l -0.0508,0.136043 v 0.05896 h -0.0208 l -0.044,0.125161 v 0.005 h -0.002 l -0.0632,0.179514 v 0.01549 h -0.005 l -0.0597,0.177318 v 0.01788 h -0.006 l -0.0592,0.182484 v 0.01251 h -0.004 c -0.0665,0.207204 -0.1307,0.415674 -0.19098,0.625414 v 0.0249 h -0.007 c -0.0199,0.06985 -0.0383,0.140251 -0.0577,0.210299 v 0.04977 h -0.0134 c -0.0174,0.06356 -0.035,0.126795 -0.0516,0.19059 v 0.06949 h -0.0188 c -0.016,0.06229 -0.0307,0.125343 -0.0461,0.187817 v 0.07225 h -0.0177 c -0.0159,0.06488 -0.0323,0.129609 -0.0474,0.194673 v 0.06545 h -0.016 c -0.0173,0.07482 -0.0324,0.150387 -0.049,0.225407 v 0.03468 h -0.008 c -0.0437,0.200546 -0.0846,0.402217 -0.12259,0.604958 v 0.04532 h -0.009 c -0.0197,0.106396 -0.0381,0.213116 -0.0562,0.319835 v 0.135295 h -0.0225 c -0.0146,0.08973 -0.0291,0.179529 -0.0426,0.269637 v 0.120558 h -0.017 c -0.0166,0.115969 -0.0332,0.232066 -0.0481,0.348738 v 0.106524 h -0.0122 c -0.0194,0.159637 -0.0372,0.319652 -0.0529,0.480374 v 0.03983 h -0.004 c -0.0256,0.265227 -0.0457,0.532513 -0.0614,0.800517 v 0.499871 h -0.0229 c -0.009,0.246284 -0.0144,0.49365 -0.0144,0.742085 0,0.208512 0.005,0.416237 0.0123,0.623582 h 0.0249 v 0.497477 c 0.0118,0.181401 0.0265,0.362238 0.0439,0.542848 h 0.021 v 0.192422 c 0.0188,0.174744 0.0398,0.348962 0.0637,0.52296 h 0.001 v 0.0092 c 0.0145,0.105271 0.028,0.210865 0.0442,0.315937 h 0.0208 v 0.122206 c 0.0145,0.08942 0.0298,0.178639 0.0455,0.267861 h 0.0196 v 0.115351 c 0.0129,0.07004 0.0274,0.139928 0.0411,0.20978 h 0.0238 v 0.119433 c 0.0183,0.0903 0.0358,0.180654 0.0553,0.270778 h 0.01 v 0.04314 c 0.0206,0.09415 0.0424,0.188156 0.0643,0.281983 h 8e-4 v 0.0028 c 0.0201,0.0857 0.0404,0.171604 0.0616,0.257162 h 0.004 v 0.01397 c 0.0205,0.08224 0.0419,0.164225 0.0632,0.246088 h 0.002 v 0.0068 c 0.0164,0.06267 0.0319,0.125527 0.049,0.1882 h 0.0159 v 0.05549 c 0.0188,0.0684 0.0389,0.136424 0.0584,0.204572 h 0.007 v 0.02362 c 0.0164,0.05713 0.0319,0.114461 0.0489,0.171587 h 0.0162 v 0.05569 l 0.0435,0.139365 h 0.0215 v 0.06873 l 0.0599,0.191352 h 0.005 v 0.01604 l 0.0582,0.178962 h 0.007 v 0.02027 l 0.0595,0.174928 h 0.006 v 0.0166 c 0.0798,0.233515 0.16237,0.466328 0.25012,0.698586 h 0.01 v 0.02714 c 0.0377,0.0995 0.0774,0.198854 0.11648,0.298016 h 0.0136 v 0.03468 l 0.063,0.160523 h 0.002 v 0.0048 l 0.0514,0.12516 h 0.0137 v 0.03248 c 0.0402,0.09771 0.0811,0.195195 0.12258,0.292724 h 0.008 v 0.01808 l 0.0478,0.112055 h 0.0173 v 0.03927 c 0.0415,0.09546 0.0841,0.190594 0.12685,0.285685 h 0.003 v 0.007 c 0.40277,0.896922 0.8586,1.783536 1.36017,2.659117 h 0.005 v 0.0094 c 0.0604,0.105411 0.12277,0.210682 0.1845,0.315758 h 0.0107 v 0.01844 c 0.0603,0.102453 0.12089,0.204572 0.18229,0.306703 h 0.0127 v 0.02099 c 0.0612,0.101568 0.12203,0.202941 0.18432,0.304126 h 0.0107 v 0.01776 c 0.0632,0.102638 0.12811,0.205135 0.19261,0.30745 h 0.002 v 0.004 c 0.24609,0.390953 0.49935,0.780078 0.76108,1.16643 h 0.0191 v 0.02801 l 0.11484,0.167011 h 0.0153 v 0.02227 l 0.11892,0.172913 h 0.011 v 0.01604 l 0.12478,0.178962 h 0.005 v 0.0075 c 0.2118,0.302298 0.42763,0.603327 0.64755,0.902847 h 0.003 v 0.0036 c 0.0628,0.0857 0.12679,0.171037 0.19023,0.25636 h 0.005 v 0.0065 l 0.18947,0.253647 h 0.006 v 0.0072 l 0.19191,0.252884 h 0.003 v 0.0044 c 0.31505,0.413087 0.63723,0.82337 0.96494,1.231109 h 0.0103 v 0.0129 c 0.0839,0.10415 0.16738,0.20829 0.25201,0.31224 h 0.008 v 0.01 l 0.25895,0.31538 h 0.001 v 0.001 c 0.10708,0.12975 0.21456,0.2595 0.32255,0.38874 h 0.002 v 0.003 c 0.23577,0.28197 0.47389,0.56311 0.71407,0.84237 h 0.001 v 0.002 c 0.14913,0.17343 0.29896,0.34653 0.44954,0.51887 h 0.006 v 0.006 c 0.32205,0.36862 0.64681,0.73528 0.97401,1.09911 h 0.002 v 0.002 c 0.21495,0.2389 0.43115,0.47665 0.64775,0.71355 h 0.002 v 0.003 c 0.5808,0.63521 1.16619,1.26282 1.75214,1.88288 h 0.004 v 0.004 c 0.41216,0.43613 0.82413,0.86836 1.23464,1.29689 h 8e-4 v 8e-4 c 1.93392,2.01874 3.8321,3.95359 5.51797,5.80125 0.0367,0.0402 0.0741,0.0783 0.11258,0.11503 h 0.0265 v 0.0251 l 0.0448,0.04 h 0.0203 v 0.0175 l 0.0579,0.0476 h 0.0722 v 0.0546 l 0.0146,0.0105 h 0.0503 v 0.0347 l 0.047,0.0302 h 0.0181 v 0.0113 c 0.0308,0.0188 0.0621,0.0368 0.0938,0.0538 h 0.0363 v 0.019 c 0.0851,0.0435 0.17325,0.0806 0.26411,0.11113 h 0.1259 v 0.0376 c 0.0389,0.0103 0.0782,0.0193 0.11798,0.0275 h 0.20717 v 0.031 c 0.0741,0.007 0.14968,0.0111 0.22633,0.0111 0.0778,0 0.1541,-0.004 0.22897,-0.0113 z m 17.69213,-42.036385 -7.9e-4,-9.98e-4 h -0.005 z"
         style="fill:#e30016;fill-rule:evenodd;stroke-width:0.140773"
         id="path1692" /><path
         d="m -197.54835,78.419568 -8.64284,-0.01173 c -1.36532,0 -2.06939,0.444899 -2.22178,1.789002 -0.03,0.263595 -0.002,0.674795 -0.002,0.958901 0,0.35458 -0.0195,0.295498 -0.0195,0.654707 v 1.025856 c -0.006,1.457758 1.45948,1.70328 2.59463,1.70328 h 6.16459 v 1.779426 h -6.82786 v -0.830896 c -0.0867,0.002 -0.19698,0.04555 -0.28135,0.06915 -0.10797,0.03017 -0.18483,0.05097 -0.29233,0.07764 l -1.68929,0.471547 c 0,0.512513 -0.03,0.458387 0.0468,0.951064 0.22085,1.417203 1.61501,1.53427 2.76235,1.53427 1.91188,0 3.8236,0 5.73544,0 1.45791,0 2.6728,-0.218467 2.67333,-1.979381 V 84.983468 83.83017 c -1.4e-4,-1.045193 -1.02717,-1.44095 -1.98692,-1.556748 -0.14037,-0.01688 -0.26342,-0.03571 -0.43273,-0.03504 l -6.22319,4.4e-5 V 80.46242 h 8.64284 z"
         style="fill:#e30016;fill-rule:evenodd;stroke-width:0.140773"
         id="path1717" /><path
         d="m -190.57016,80.474443 0.58045,-3.99e-4 0.60666,3.99e-4 c 0.14481,0.253392 1.94789,3.652032 2.19034,4.149553 l -2.78387,0.0041 -2.78391,-0.0041 c 0.24249,-0.497605 2.04568,-3.896441 2.19033,-4.149553 z m 4.57259,6.377848 -3.97901,-4.4e-5 -3.97905,4.4e-5 c -0.2138,0.396878 -0.69153,1.290859 -0.91914,1.716233 l -0.0838,-3.99e-4 -0.002,0.0028 -2.81743,-0.0016 5.42516,-10.151067 2.37566,8.3e-5 2.37573,-8.3e-5 5.42513,10.151067 -2.81743,0.0016 -0.002,-0.0028 -0.0838,3.99e-4 c -0.22762,-0.425374 -0.70535,-1.319355 -0.91916,-1.716233 z"
         style="fill:#000000;fill-rule:evenodd;stroke-width:0.140773"
         id="path1762" /></g></g></svg>
